<svg width="185" height="46" viewBox="0 0 185 46" fill="none" xmlns="http://www.w3.org/2000/svg">
<g clip-path="url(#clip0_3_78)">
<path d="M97.6511 1.64335C97.6763 1.60059 97.7055 1.60059 97.7404 1.64335L97.688 1.6861L97.6511 1.64335Z" fill="#0124DD"/>
<path d="M53.0081 16.5742C53.5697 14.8759 54.1021 13.2709 54.6229 11.6795C54.687 11.4852 54.8172 11.4405 54.9863 11.4094C57.7981 10.8848 60.6215 10.4378 63.4936 10.5797C65.5203 10.6749 67.4694 11.0888 69.2143 12.1769C71.5812 13.6498 72.6635 15.8688 72.817 18.5892C72.9064 20.1534 72.6519 21.6981 72.4284 23.2293C71.964 26.3499 71.4859 29.4667 71.0371 32.5873C71.0248 32.7181 70.9776 32.8433 70.9003 32.9496C70.823 33.0559 70.7186 33.1395 70.5979 33.1916C68.7674 34.1962 66.7815 34.7461 64.7411 35.0803C62.2161 35.5178 59.6406 35.5832 57.0966 35.2746C54.9766 35.0084 53.0003 34.3497 51.4613 32.7913C50.7935 32.1075 50.275 31.2923 49.9388 30.3975C49.6027 29.5026 49.4562 28.5477 49.5086 27.5933C49.5611 26.6389 49.8113 25.7058 50.2434 24.8532C50.6756 24.0006 51.2802 23.2471 52.019 22.6405C53.5969 21.3425 55.4624 20.6974 57.4269 20.2797C60.402 19.6501 63.4042 19.7356 66.4084 19.9649C66.7834 19.9921 66.865 19.8774 66.8825 19.5432C67.0166 17.1998 65.6097 15.5171 63.1399 15.0644C61.426 14.7496 59.7432 15.0216 58.0604 15.2975C56.3434 15.5801 54.6533 16.0071 53.0081 16.5742ZM63.5169 23.6432C62.4475 23.6362 61.3792 23.7148 60.3223 23.8783C59.1797 24.0726 58.0701 24.3738 57.1491 25.1316C56.1075 25.9885 55.8296 27.1388 56.0356 28.4057C56.2299 29.5619 57.0383 30.1953 58.0857 30.5684C58.5658 30.7373 59.0652 30.845 59.5722 30.889C61.4455 31.0697 63.2643 30.7433 65.0715 30.2964C65.194 30.2802 65.3064 30.2197 65.3874 30.1262C65.4683 30.0327 65.5122 29.9128 65.5106 29.7892C65.7574 27.953 66.0022 26.1148 66.2743 24.2825C66.3209 23.9657 66.216 23.9055 65.9517 23.855C65.1467 23.7221 64.3327 23.6513 63.5169 23.6432Z" fill="#114185"/>
<path d="M139.76 29.3714C139.449 30.3158 139.177 31.161 138.889 32.0063C138.66 32.7 138.415 33.3878 138.198 34.0874C138.177 34.1944 138.125 34.2929 138.048 34.3704C137.971 34.4478 137.873 34.5008 137.766 34.5226C134.793 35.3154 131.781 35.7448 128.711 35.3581C125.213 34.9171 122.322 33.415 120.55 30.207C119.459 28.2211 119.114 26.0584 119.261 23.8297C119.543 19.5899 121.309 16.0748 124.593 13.3525C126.589 11.697 128.917 10.8459 131.478 10.5933C133.245 10.4204 135.001 10.4534 136.725 10.9333C140.234 11.9049 142.574 14.6349 143.023 18.2491C143.281 20.3263 143.023 22.3666 142.686 24.4088C142.646 24.6633 142.517 24.6711 142.323 24.6711C141.381 24.6711 140.436 24.6711 139.494 24.6711C134.96 24.6711 130.426 24.6711 125.891 24.6711C125.526 24.6711 125.419 24.7605 125.413 25.1355C125.363 28.19 127.05 30.207 130.052 30.7219C132.271 31.1105 134.43 30.7744 136.585 30.3041C137.663 30.0632 138.723 29.7516 139.76 29.3714ZM131.832 20.7052H136.185C137.514 20.7052 137.514 20.7052 137.558 19.3761C137.65 16.6849 136.004 14.9303 133.328 14.7807C130.128 14.6 127.11 16.9181 126.333 20.3574C126.268 20.643 126.333 20.713 126.624 20.711C128.355 20.6974 130.083 20.7052 131.832 20.7052Z" fill="#114185"/>
<path d="M150.933 35.4359C148.08 35.4169 145.248 34.9447 142.543 34.0368C142.273 33.9436 142.201 33.8658 142.298 33.5724C142.742 32.2265 143.168 30.8741 143.575 29.5152C143.676 29.181 143.794 29.2082 144.062 29.3365C146.66 30.6073 149.595 31.021 152.443 30.5179C153.111 30.4161 153.746 30.1563 154.293 29.7601C154.546 29.5845 154.757 29.3543 154.91 29.0866C155.062 28.8188 155.153 28.5203 155.175 28.2129C155.197 27.9055 155.15 27.597 155.037 27.3103C154.924 27.0235 154.748 26.7657 154.522 26.5559C154.029 26.0987 153.474 25.7116 152.875 25.4056C151.388 24.5739 149.876 23.7947 148.464 22.831C144.669 20.233 145.131 14.8254 148.868 12.4528C150.523 11.4016 152.336 10.875 154.262 10.6749C157.472 10.3426 160.576 10.8925 163.634 11.8136C163.914 11.8971 163.986 11.9729 163.879 12.2702C163.418 13.5468 162.973 14.8312 162.556 16.1234C162.445 16.4634 162.313 16.4381 162.05 16.3177C160.137 15.415 158.043 14.963 155.927 14.9964C154.901 15.0216 153.901 15.1907 153.032 15.7969C152.663 16.0324 152.381 16.3825 152.23 16.7936C152.079 17.2046 152.067 17.6539 152.196 18.0723C152.364 18.5415 152.68 18.9434 153.096 19.2168C153.996 19.893 155.026 20.3496 156.011 20.8898C157.216 21.5191 158.367 22.2484 159.45 23.07C162.653 25.6115 162.328 30.4538 159.256 32.9137C157.274 34.4974 154.954 35.1308 152.486 35.3562C151.866 35.4106 151.25 35.4203 150.933 35.4359Z" fill="#114185"/>
<path d="M171.895 35.4359C169.079 35.4087 166.286 34.9412 163.615 34.0504C163.306 33.9475 163.226 33.8561 163.341 33.5297C163.78 32.2123 164.196 30.8871 164.6 29.558C164.697 29.2354 164.794 29.1888 165.109 29.3404C167.696 30.5994 170.614 31.014 173.449 30.5256C174.057 30.4303 174.639 30.2135 175.161 29.8883C176.45 29.0664 176.607 27.5566 175.519 26.4995C175.062 26.0894 174.555 25.74 174.009 25.46C172.454 24.5778 170.84 23.7889 169.376 22.7396C166.001 20.301 166.421 15.8882 168.484 13.6731C169.876 12.1827 171.632 11.3822 173.581 10.9528C176.168 10.3698 178.752 10.5097 181.335 10.9877C182.423 11.182 183.488 11.4774 184.553 11.765C184.906 11.8641 185.035 11.969 184.885 12.3732C184.436 13.5915 184.028 14.8234 183.632 16.0651C183.521 16.4051 183.41 16.4537 183.076 16.308C181.188 15.4217 179.126 14.9708 177.04 14.9886C176.069 15.0061 175.13 15.1499 174.283 15.659C173.48 16.1389 173.074 16.8365 173.195 17.7964C173.27 18.4065 173.638 18.832 174.1 19.1818C175.072 19.9182 176.189 20.404 177.246 20.9869C178.451 21.6534 179.64 22.3471 180.692 23.2429C183.637 25.7689 183.305 30.4518 180.35 32.8613C178.762 34.1573 176.92 34.8296 174.932 35.1774C173.928 35.3406 172.912 35.427 171.895 35.4359Z" fill="#114185"/>
<path d="M94.9111 29.7154C94.812 30.2983 94.5614 30.821 94.3768 31.3709C94.025 32.4182 93.65 33.4559 93.3022 34.5051C93.2766 34.61 93.2184 34.7042 93.1361 34.774C93.0537 34.8438 92.9513 34.8857 92.8436 34.8937C90.5117 35.2824 88.1547 35.5291 85.7859 35.3504C82.2512 35.0842 79.2199 33.7959 77.1368 30.7841C75.6677 28.6622 75.1489 26.2508 75.2791 23.7112C75.4967 19.4752 77.2922 16.0087 80.6015 13.3544C82.498 11.8349 84.7288 11.0888 87.1053 10.7779C90.0471 10.3609 93.0427 10.54 95.9138 11.3045C96.4618 11.4541 96.9903 11.6639 97.5286 11.8388C97.7229 11.901 97.7735 11.9845 97.7016 12.1963C97.243 13.5371 96.7883 14.8817 96.3588 16.2322C96.2636 16.5295 96.1295 16.4692 95.9371 16.3934C94.5651 15.8309 93.1121 15.4904 91.633 15.385C88.4325 15.2043 85.6499 16.0845 83.6523 18.7485C81.781 21.2454 81.4914 25.392 83.4949 27.8986C84.7405 29.4531 86.3844 30.2769 88.3354 30.5043C90.4398 30.7491 92.4744 30.343 94.4836 29.7659C94.6119 29.729 94.7421 29.7037 94.8723 29.6726L94.9111 29.7154Z" fill="#114185"/>
<path d="M117.064 29.6882C116.617 30.9745 116.104 32.2472 115.736 33.5608C115.47 34.5187 115.021 34.9734 113.976 35.0783C111.061 35.3698 108.146 35.6963 105.231 34.9248C100.647 33.7065 97.653 30.0496 97.4043 25.2968C97.1322 20.132 99.1104 16.0048 103.271 12.9522C105.02 11.6717 107.06 11.0655 109.19 10.7876C112.131 10.372 115.125 10.5504 117.996 11.3122C118.529 11.458 119.04 11.6756 119.57 11.8291C119.848 11.9107 119.856 12.037 119.765 12.2799C119.32 13.5798 118.879 14.8798 118.465 16.1894C118.366 16.5023 118.247 16.4906 117.992 16.3935C115.956 15.6162 113.873 15.1946 111.675 15.4219C107.942 15.8222 105.101 18.2899 104.384 21.9216C103.867 24.5428 104.341 26.9406 106.43 28.7963C108.096 30.2731 110.122 30.685 112.281 30.5587C113.804 30.4584 115.309 30.1713 116.762 29.7037C116.85 29.6882 116.928 29.6163 117.064 29.6882Z" fill="#114185"/>
<path d="M43.0356 24.3407L18.8293 0.135506V3.85072L39.3202 24.3407L39.328 24.3485L21.5789 42.0968L21.5575 42.0754L3.82004 24.3407L3.8045 24.3252L12.5119 15.6182H8.73244L0.0172119 24.333L0.0249849 24.3407L21.5497 45.8645L21.5575 45.8567L43.0551 24.3602L43.0356 24.3407Z" fill="#FE6309"/>
<path d="M18.8215 6.40784V10.1231L33.0476 24.3485L21.5867 35.8089L10.116 24.3407L10.1005 24.3252L18.8079 15.6182H15.0284L6.31317 24.333L6.32094 24.3407L19.6882 37.7073L21.5575 39.5766L23.458 37.6782L36.7747 24.3602L18.8215 6.40784Z" fill="#FE6309"/>
<path d="M30.5001 24.3407L23.4016 17.2348L21.5128 15.3461L19.6551 17.2037L12.5197 24.333L19.659 31.4719L21.5284 33.3412L23.4249 31.4428L30.5195 24.3602L30.5001 24.3407ZM21.5614 29.5871L16.3148 24.3407L16.2992 24.3252L21.5323 19.0924L26.7789 24.3388L21.5614 29.5871Z" fill="#FE6309"/>
</g>
<defs>
<clipPath id="clip0_3_78">
<rect width="185" height="46" fill="white"/>
</clipPath>
</defs>
</svg>
