<svg width="97" height="97" viewBox="0 0 97 97" fill="none" xmlns="http://www.w3.org/2000/svg">
<g clip-path="url(#clip0_3_392)">
<path d="M0 0H97V97H0V0Z" fill="#C7001D"/>
<path d="M51.6271 73.5893C51.6271 73.7226 51.6427 73.8475 51.6739 73.9637C51.7079 74.0772 51.7561 74.1764 51.8185 74.2615C51.881 74.3437 51.9589 74.409 52.0525 74.4572C52.1461 74.5054 52.2525 74.5295 52.3716 74.5295C52.4735 74.5307 52.5747 74.5119 52.6694 74.4742C52.7601 74.4346 52.8396 74.3777 52.9077 74.304C52.9757 74.2304 53.0281 74.141 53.0651 74.036C53.1047 73.9283 53.1246 73.8049 53.1246 73.6659C53.1311 73.5359 53.1197 73.4056 53.0906 73.2787C53.0622 73.1567 53.0169 73.0504 52.9545 72.9597C52.8927 72.8695 52.8093 72.7964 52.712 72.7469C52.6155 72.693 52.5021 72.6661 52.3716 72.6661C52.2619 72.6645 52.1535 72.6909 52.0568 72.7427C51.9652 72.7916 51.8854 72.8598 51.8228 72.9426C51.7573 73.031 51.7083 73.1304 51.6781 73.2362C51.6441 73.3468 51.6271 73.4646 51.6271 73.5893ZM51.6271 74.6997H51.3718V71.6365H51.6271V72.849C51.7093 72.7129 51.8214 72.6108 51.9632 72.5427C52.1033 72.4729 52.2576 72.4365 52.4142 72.4364C52.5814 72.4364 52.7261 72.469 52.8481 72.5342C52.9692 72.5936 53.0742 72.6811 53.1544 72.7895C53.2392 72.8996 53.3014 73.0254 53.3374 73.1596C53.377 73.3014 53.3969 73.4489 53.3969 73.6021C53.3969 73.7637 53.3785 73.9155 53.3416 74.0573C53.3047 74.199 53.2451 74.3224 53.1629 74.4274C53.0813 74.5312 52.9764 74.6143 52.8566 74.6699C52.7319 74.7295 52.5801 74.7593 52.4014 74.7593C52.3304 74.7593 52.2581 74.7494 52.1844 74.7295C52.1092 74.709 52.0365 74.6805 51.9674 74.6444C51.8984 74.6068 51.8341 74.5611 51.776 74.5083C51.719 74.451 51.6715 74.3849 51.6356 74.3126H51.6271V74.6997ZM53.9258 75.2996L54.0279 75.3166C54.0649 75.3222 54.1016 75.3251 54.1385 75.3251C54.2095 75.3251 54.2675 75.3025 54.313 75.257C54.3584 75.2116 54.3952 75.1563 54.4236 75.0911C54.4554 75.027 54.481 74.9601 54.5002 74.8911C54.5201 74.8231 54.5427 74.7649 54.5682 74.7167L53.7131 72.4959H53.9981L54.7044 74.3891L55.4106 72.4959H55.6871L54.866 74.6699C54.815 74.809 54.7653 74.9337 54.7171 75.0443C54.6717 75.1549 54.6222 75.2485 54.5682 75.3251C54.5172 75.4046 54.459 75.4641 54.3938 75.5038C54.3314 75.5463 54.2563 75.5676 54.1683 75.5676C54.1229 75.5676 54.079 75.5647 54.0364 75.5591C53.9992 75.5539 53.9623 75.5468 53.9258 75.5378V75.2996ZM59.6961 74.2913H59.7046L60.3726 71.6365H60.6704L59.8663 74.6997H59.5472L58.8367 71.9939H58.8282L58.1178 74.6997H57.7987L57.0074 71.6365H57.2967L57.9561 74.2913H57.9646L58.6751 71.6365H58.9984L59.6961 74.2913ZM61.0732 74.6997V71.6365H63.111V71.8833H61.3625V72.9894H62.9409V73.2362H61.3625V74.4529H63.1536V74.6997H61.0732ZM63.6612 74.6997V71.6365H64.1037L65.1077 74.3381H65.1162L66.1032 71.6365H66.5414V74.6997H66.2521V71.9684H66.2436L65.2396 74.6997H64.9673L63.959 71.9684H63.9505V74.6997H63.6612ZM66.9371 74.6997L68.1411 71.6365H68.4687L69.6429 74.6997H69.3451L68.992 73.7382H67.5965L67.2349 74.6997H66.9371ZM67.6944 73.4915H68.8941L68.2942 71.8833L67.6944 73.4915ZM32.8533 66.9314H29.9583L29.5153 67.8927H27.3982V67.6172L30.9521 60.0719H31.8811L35.3971 67.6172V67.8927H33.307L32.8533 66.9314ZM31.4058 63.3665L30.6065 65.2354H32.2106L31.4058 63.3665ZM42.4198 60.1475V66.0779H45.223V67.8927H40.3998V60.1475H42.4198ZM55.9914 66.9314H53.0966L52.6536 67.8927H50.5364V67.6172L54.0904 60.0719H55.0194L58.5354 67.6172V67.8927H56.4451L55.9914 66.9314ZM54.5441 63.3665L53.7446 65.2354H55.3488L54.5441 63.3665ZM65.5029 61.919H63.6017V60.1475H69.3538V61.919H67.4635V67.8927H65.5029V61.919ZM23.6543 54.7965H49.3556C49.8615 54.7965 50.1906 54.264 49.9645 53.8113L49.4359 52.7544L48.3298 50.7974L48.2728 50.7024C48.2123 50.6016 48.1267 50.5182 48.0244 50.4603C47.9222 50.4024 47.8066 50.3719 47.6891 50.3719H31.397C30.8705 50.3719 30.5432 49.7996 30.8106 49.3458L41.4508 31.2801C41.7132 30.8348 42.3568 30.8327 42.6217 31.2765L56.4703 54.4648C56.5307 54.5659 56.6163 54.6497 56.7187 54.7078C56.8211 54.7659 56.9369 54.7965 57.0547 54.7965H72.8471C73.3711 54.7965 73.6987 54.2291 73.4366 53.7754L54.5676 21.1018C54.5078 20.9983 54.4219 20.9124 54.3184 20.8526C54.2149 20.7929 54.0976 20.7614 53.9781 20.7614H50.5946C50.0753 20.7614 49.7472 21.3198 50.0002 21.7736L65.3786 49.3597C65.6317 49.8136 65.3036 50.3719 64.7842 50.3719H59.6972C59.5782 50.372 59.4612 50.3408 59.3581 50.2814C59.2549 50.2221 59.1691 50.1368 59.1092 50.034L42.7407 21.9503C42.6808 21.8474 42.595 21.7621 42.4918 21.7028C42.3887 21.6435 42.2717 21.6123 42.1527 21.6123H42.0843C41.9653 21.6123 41.8483 21.6435 41.745 21.7029C41.6418 21.7623 41.5559 21.8477 41.496 21.9506L23.066 53.6167C23.0055 53.7206 22.9736 53.8388 22.9736 53.9591V54.1158C22.9736 54.2963 23.0453 54.4695 23.173 54.5971C23.3007 54.7248 23.4738 54.7965 23.6543 54.7965Z" fill="white"/>
</g>
<defs>
<clipPath id="clip0_3_392">
<rect width="97" height="97" fill="white"/>
</clipPath>
</defs>
</svg>
