<svg width="151" height="45" viewBox="0 0 151 45" fill="none" xmlns="http://www.w3.org/2000/svg">
<g clip-path="url(#clip0_3_405)">
<path fill-rule="evenodd" clip-rule="evenodd" d="M21.4231 0.111747C21.2136 0.232169 20.6772 0.759537 20.2906 1.22537C19.73 1.90072 19.5477 2.11627 19.385 2.29634C19.291 2.40015 19.0181 2.72593 18.778 3.02001C18.5379 3.31408 18.2378 3.66817 18.1113 3.80634C17.9845 3.94488 17.7689 4.19969 17.6319 4.37259C17.4945 4.54586 17.3076 4.7667 17.2163 4.86372C17.1253 4.96036 17.0505 5.05247 17.0505 5.06794C17.0505 5.08342 17.0007 5.14646 16.9403 5.208C16.8799 5.26953 16.7029 5.47262 16.547 5.65911C16.3914 5.84559 16.2144 6.0502 16.154 6.11362C16.0932 6.17704 16.0438 6.24008 16.0438 6.25405C16.0438 6.26802 15.9596 6.37447 15.8569 6.49074L15.6696 6.70214L14.7399 6.62098C14.2287 6.57643 13.3076 6.49829 12.6934 6.44733C12.0792 6.39637 11.074 6.31256 10.4598 6.26122C7.14872 5.98489 7.17967 5.98527 6.68062 6.24197C6.46733 6.35182 6.35182 6.46734 6.24196 6.68062C5.98526 7.17968 5.98489 7.14872 6.26122 10.4598C6.31256 11.074 6.39636 12.0793 6.4477 12.6934C6.49866 13.3076 6.57756 14.2284 6.62286 14.7399C6.70402 15.6512 6.70327 15.6708 6.57718 15.7576C6.50659 15.8059 6.34691 15.9399 6.22233 16.0547C5.98866 16.271 5.92864 16.322 5.34691 16.7984C5.15703 16.9539 4.88862 17.1846 4.75008 17.311C4.61192 17.4375 4.3571 17.6534 4.18383 17.7904C4.01094 17.9275 3.7901 18.1143 3.69308 18.2057C3.59606 18.2971 3.48999 18.3718 3.45714 18.3718C3.4243 18.3718 3.39712 18.3929 3.39712 18.419C3.39674 18.4447 3.17062 18.65 2.89429 18.875C2.61796 19.1 2.39146 19.3054 2.39146 19.331C2.39108 19.3571 2.35069 19.3782 2.30162 19.3782C2.25254 19.3782 2.20309 19.4039 2.19176 19.4356C2.18006 19.4669 1.95885 19.6696 1.70026 19.8856C1.44129 20.1019 1.19705 20.3099 1.15666 20.3476C1.11664 20.3854 0.895052 20.5836 0.664399 20.7878C-0.260098 21.6055 -0.268026 22.4484 0.641372 23.265C0.785199 23.3941 0.947147 23.5443 1.00188 23.599C1.05624 23.6538 1.34163 23.8939 1.63571 24.1328C1.92978 24.3714 2.18459 24.5832 2.20196 24.6032C2.21932 24.6232 2.53076 24.889 2.89429 25.1936C3.25745 25.4982 3.56435 25.7723 3.57568 25.8029C3.58738 25.8338 3.63457 25.8588 3.68062 25.8588C3.72668 25.8588 3.77387 25.8837 3.78557 25.9146C3.79689 25.9452 4.01886 26.1457 4.27821 26.3601C4.53793 26.5745 4.91732 26.8961 5.12154 27.0751C5.32577 27.254 5.56888 27.4567 5.66174 27.5262C5.75461 27.5953 6.0283 27.8286 6.26952 28.0445L6.70818 28.4371L6.6289 29.1139C6.58511 29.4865 6.54887 29.9467 6.54812 30.137C6.54736 30.3272 6.50395 30.9218 6.45148 31.4582C6.399 31.9946 6.31444 32.9433 6.2631 33.5662C6.21214 34.189 6.14079 35.0524 6.10455 35.485C5.91845 37.7138 6.30538 38.1641 8.26461 37.9999C8.68476 37.9648 9.53829 37.8938 10.1612 37.8421C11.2102 37.7549 13.2031 37.5828 14.895 37.4333C15.5843 37.3725 15.855 37.4129 15.855 37.5764C15.855 37.6028 15.9045 37.6756 15.9652 37.7383C16.0256 37.801 16.2027 38.0041 16.3582 38.189C16.5141 38.3744 16.698 38.5896 16.7674 38.667C16.938 38.8576 17.2823 39.271 17.6813 39.7632C17.8637 39.9882 18.046 40.2007 18.0872 40.2351C18.1283 40.2698 18.3559 40.539 18.5938 40.833C18.9962 41.331 19.2042 41.5752 19.4443 41.8304C19.4975 41.8874 19.6674 42.0897 19.8214 42.28C20.1426 42.6771 20.1007 42.6284 20.6368 43.2283C21.516 44.2128 22.6372 44.3736 23.1577 43.5899C23.1996 43.5269 23.6251 43.0263 23.8108 42.821C23.8818 42.7424 24.0671 42.5269 24.223 42.3415C24.3786 42.1566 24.5556 41.9535 24.616 41.8908C24.6768 41.8281 24.7262 41.7625 24.7262 41.7451C24.7262 41.7277 24.7757 41.6624 24.8365 41.5997C24.8969 41.5371 25.0739 41.3336 25.2295 41.1483C25.3854 40.9625 25.5624 40.767 25.6228 40.7134C25.6832 40.6601 25.733 40.5801 25.733 40.536C25.733 40.4914 25.7542 40.4552 25.7802 40.4552C25.8059 40.4552 25.969 40.2793 26.1419 40.0645C26.3148 39.85 26.5273 39.5998 26.6138 39.5084C26.7749 39.3381 26.8187 39.2864 27.3057 38.6926C27.4612 38.5031 27.6674 38.2626 27.764 38.1588C27.8606 38.055 28.0449 37.8331 28.1732 37.6654L28.4069 37.3604L28.7213 37.3978C28.8946 37.4182 29.2766 37.4506 29.5707 37.4695C29.8648 37.488 30.6858 37.5575 31.3955 37.6235C32.1049 37.6896 33.2374 37.7885 33.912 37.8432C34.5869 37.8984 35.4654 37.9716 35.864 38.0063C37.9406 38.1868 38.2204 37.6964 37.9127 34.4155C37.8591 33.8444 37.7719 32.8535 37.719 32.2132C37.6662 31.573 37.5643 30.4586 37.4925 29.7364C37.4208 29.0143 37.3857 28.4039 37.4144 28.3797C37.4435 28.3555 37.6224 28.2102 37.8123 28.0569C38.0022 27.9033 38.2147 27.7194 38.2842 27.6481C38.3536 27.5768 38.6088 27.3612 38.8512 27.1687C39.0931 26.9762 39.3634 26.7512 39.4518 26.6689C39.5397 26.5866 39.7662 26.3922 39.955 26.2366C40.1437 26.0811 40.3298 25.9252 40.3687 25.8905C40.4076 25.8557 40.5748 25.7142 40.7406 25.5756C40.9059 25.4371 41.0724 25.2955 41.1101 25.2608C41.1479 25.2261 41.3347 25.0717 41.525 24.9176C41.7153 24.7636 41.9165 24.5938 41.972 24.5405C42.1471 24.3722 42.4253 24.1377 42.7832 23.8576C44.5741 22.4563 44.5873 21.7119 42.8463 20.2668C42.5869 20.0513 42.3038 19.8116 42.217 19.7334C42.1305 19.6557 41.8202 19.3952 41.5276 19.1547C41.2351 18.9143 40.9236 18.6504 40.8357 18.5681C40.7477 18.4858 40.4918 18.2699 40.2668 18.0887C40.0418 17.9071 39.7855 17.6912 39.6975 17.6089C39.5578 17.4786 39.2547 17.2231 38.6998 16.7674C38.6152 16.698 38.4944 16.5919 38.4314 16.5315C38.368 16.4707 38.3038 16.4213 38.2887 16.4213C38.2736 16.4213 38.1392 16.3114 37.9901 16.1774C37.8406 16.043 37.6379 15.8652 37.539 15.7818L37.3593 15.63L37.4891 14.3741C37.5601 13.6832 37.6632 12.5519 37.7179 11.8599C37.7727 11.1676 37.861 10.1483 37.9142 9.59492C38.2351 6.26311 37.9742 5.87806 35.548 6.10041C35.1845 6.13363 34.3351 6.20497 33.6605 6.25896C32.4427 6.35597 31.1524 6.46545 29.3627 6.62362L28.4314 6.70592L28.1377 6.35711C27.9761 6.16534 27.7817 5.9377 27.7059 5.85126C27.6296 5.76481 27.4499 5.55228 27.3057 5.37938C26.9611 4.96526 26.5352 4.46357 26.4563 4.37787C26.4216 4.3405 26.2657 4.15439 26.1102 3.96489C25.9546 3.77501 25.7708 3.55077 25.7013 3.46621C25.6322 3.38203 25.533 3.26651 25.4813 3.20989C25.4292 3.15289 25.2321 2.92412 25.0426 2.7014C24.8535 2.47867 24.6357 2.22575 24.559 2.1393C24.4824 2.05285 24.2449 1.76973 24.0313 1.51001C23.8172 1.25066 23.6172 1.02869 23.5866 1.01699C23.556 1.00567 23.5307 0.972069 23.5307 0.942624C23.5307 0.856177 22.9358 0.270674 22.7051 0.129867C22.4269 -0.0396309 21.7044 -0.0498234 21.4231 0.111747ZM22.4684 6.02415C22.681 6.29255 22.8795 6.52132 22.9097 6.53302C22.9399 6.54435 22.9645 6.57983 22.9645 6.61154C22.9645 6.64325 23.0143 6.72102 23.0747 6.78444C23.3401 7.06228 23.5938 7.37787 23.5938 7.43034C23.5938 7.46167 23.6168 7.48696 23.6447 7.48696C23.6726 7.48696 23.8338 7.67571 24.003 7.90599C24.6251 8.75348 24.7768 8.85238 25.0803 8.6104C25.1196 8.57907 25.4171 8.41675 25.741 8.24951C26.0652 8.08228 26.4862 7.85314 26.676 7.74027C26.8663 7.62777 27.0785 7.50999 27.1479 7.47904C27.2174 7.44808 27.5009 7.29708 27.7776 7.14382C28.0547 6.99055 28.2978 6.86333 28.3182 6.86145C28.354 6.85805 28.419 7.04793 28.6062 7.70742C28.7931 8.36503 28.8991 8.72516 29.0048 9.06001C29.0649 9.25027 29.1562 9.54774 29.2076 9.72063C29.2593 9.89353 29.3521 10.1967 29.414 10.3945L29.5265 10.7535L30.0362 10.7203C30.3166 10.7018 30.8421 10.6455 31.2045 10.5953C31.5666 10.5447 32.2034 10.4764 32.6202 10.4428C33.0365 10.4096 33.4574 10.365 33.5552 10.3443L33.733 10.3061L33.6949 10.8312C33.6602 11.3084 33.622 11.6927 33.4114 13.6844C33.3121 14.6191 33.2891 14.5485 33.7391 14.6825C33.9554 14.7467 34.2879 14.8493 34.4782 14.9097C34.8923 15.0419 35.2849 15.1578 36.2087 15.4213C36.5892 15.5296 36.978 15.6462 37.0724 15.681L37.2442 15.7436L36.9837 16.2238C36.8406 16.4881 36.6303 16.8743 36.5171 17.0819C36.4035 17.2895 36.2374 17.6009 36.1471 17.7738C36.0573 17.9471 35.9195 18.2019 35.8414 18.3401C35.7632 18.4786 35.6062 18.761 35.4922 18.9679L35.2849 19.3439L35.4635 19.4934C35.562 19.5756 35.7024 19.6934 35.7761 19.7553C35.8497 19.8169 36.1033 20.0192 36.34 20.2049C36.5764 20.3903 36.8417 20.6092 36.9297 20.6908C37.0177 20.7723 37.2098 20.9256 37.3566 21.0317C37.5039 21.1377 37.6243 21.2476 37.6243 21.2767C37.6243 21.3053 37.6666 21.3288 37.7187 21.3288C37.7704 21.3288 37.813 21.3514 37.813 21.3793C37.813 21.4073 37.9818 21.5556 38.1879 21.7097C38.6405 22.0471 38.6349 22.0067 38.2683 22.2861C38.1037 22.4118 37.8984 22.5753 37.8123 22.6493C37.4605 22.9509 37.385 23.0132 36.932 23.3744C36.6726 23.5817 36.4318 23.7821 36.3974 23.8199C36.3627 23.858 36.1558 24.0233 35.9376 24.1879C35.2483 24.7081 35.2615 24.6768 35.5265 25.1611C35.6515 25.3891 35.8278 25.7172 35.9184 25.8901C36.0086 26.0634 36.0984 26.2189 36.1177 26.2363C36.1369 26.2536 36.2094 26.3808 36.2785 26.5194C36.5182 26.9988 37.0747 28.0298 37.1603 28.1536C37.2876 28.3363 37.2706 28.3654 37.0109 28.4125C36.881 28.4359 36.6756 28.4907 36.5545 28.5345C36.4337 28.5779 36.1079 28.6749 35.8312 28.75C35.5541 28.8251 35.2287 28.9244 35.1075 28.9705C34.9863 29.0165 34.7032 29.103 34.4782 29.1626C34.2532 29.2223 33.9625 29.3102 33.8323 29.3578C33.7017 29.4057 33.539 29.445 33.4703 29.445C33.3234 29.445 33.3189 29.5111 33.4069 30.3453C33.5677 31.8682 33.6598 32.7912 33.696 33.2453L33.7357 33.7425L33.3993 33.6994C33.2143 33.6756 32.7511 33.6303 32.3706 33.599C31.9901 33.5673 31.4661 33.5133 31.2068 33.479C30.9471 33.4446 30.4624 33.3982 30.1294 33.3759L29.5239 33.3351L29.4461 33.545C29.4031 33.6605 29.3457 33.8538 29.3185 33.975C29.291 34.0962 29.2393 34.28 29.2034 34.3838C29.1672 34.4876 29.0362 34.9123 28.9116 35.3276C28.7874 35.7428 28.6473 36.2102 28.6005 36.3657C28.5537 36.5216 28.4824 36.7708 28.442 36.9195C28.3567 37.2332 28.3212 37.2328 27.7463 36.9108C27.556 36.804 27.3012 36.6643 27.18 36.5998C27.0588 36.5356 26.7617 36.3736 26.5194 36.2408C26.277 36.1075 25.8667 35.8901 25.607 35.7576C25.3476 35.6251 25.1204 35.4971 25.1026 35.4733C24.8773 35.1755 24.7179 35.2668 24.0928 36.0513C23.8033 36.4144 23.55 36.7258 23.5296 36.7432C23.5096 36.7606 23.3246 36.9863 23.1185 37.2445C22.9127 37.5027 22.7017 37.7583 22.65 37.8127C22.5979 37.867 22.4563 38.0441 22.3355 38.2064C22.0358 38.6073 22.0543 38.6145 21.4862 37.8757C21.3129 37.6511 21.1291 37.4238 21.077 37.3714C21.0252 37.3189 20.8271 37.0781 20.6372 36.8365C20.4469 36.5949 20.2487 36.3495 20.1966 36.291C20.1445 36.2325 19.9603 36.001 19.7874 35.7764C19.6141 35.5518 19.436 35.3525 19.391 35.3332C19.3212 35.303 18.7149 35.5696 18.6232 35.6707C18.6062 35.6896 18.436 35.787 18.2457 35.887C18.0554 35.9871 17.6874 36.1834 17.428 36.3234C17.1683 36.4639 16.8429 36.6352 16.7044 36.7043C16.5658 36.7738 16.4386 36.8463 16.4213 36.8655C16.4039 36.8848 16.2416 36.9765 16.0607 37.0697L15.7319 37.2385L15.6598 36.9754C15.6198 36.8304 15.5522 36.5986 15.5092 36.4601C15.4224 36.1819 15.3223 35.8406 15.0381 34.8557C14.9331 34.4926 14.8074 34.0679 14.7587 33.912C14.71 33.7564 14.6523 33.5484 14.6308 33.4503C14.6043 33.3299 14.5621 33.2827 14.502 33.3057C14.4526 33.3246 14.1921 33.3567 13.9226 33.3767C13.653 33.3971 13.0645 33.4533 12.6149 33.5024C11.1049 33.6666 10.3718 33.7349 10.3507 33.7134C10.339 33.7017 10.3707 33.3238 10.4209 32.8738C10.7905 29.5779 10.7991 29.445 10.6466 29.445C10.5821 29.445 10.4043 29.4057 10.251 29.3582C10.0977 29.3102 9.80254 29.2208 9.59492 29.1589C9.38729 29.0973 9.06151 28.9977 8.87125 28.9376C8.68099 28.878 8.35521 28.7795 8.14758 28.7187C7.93996 28.6583 7.66363 28.5703 7.53301 28.5235C7.4024 28.4767 7.24498 28.4382 7.18307 28.4382C6.95431 28.4382 6.85012 28.2989 6.94789 28.1238C6.99621 28.0373 7.11097 27.8248 7.20308 27.6519C7.29481 27.479 7.43448 27.2242 7.51338 27.0856C7.5919 26.9471 7.78443 26.5934 7.94109 26.2993C8.47639 25.2936 8.55642 25.1483 8.61455 25.0785C8.81802 24.8335 8.76555 24.6844 8.35747 24.3488C8.13815 24.1687 7.88824 23.9607 7.80179 23.8867C7.71535 23.8123 7.44619 23.5979 7.20383 23.4099C6.96186 23.2215 6.72667 23.0309 6.68137 22.9856C6.63607 22.9407 6.42392 22.7704 6.2095 22.6077C5.59304 22.1392 5.48847 22.0234 5.60399 21.9362C5.97469 21.656 6.5232 21.2276 6.5802 21.1736C6.61758 21.1377 6.77084 21.0094 6.92071 20.8882C7.07058 20.767 7.22384 20.6394 7.26159 20.6043C7.29896 20.5692 7.45714 20.442 7.61304 20.3216C7.76857 20.2015 7.95279 20.0505 8.02188 19.9867C8.09096 19.9226 8.26763 19.7836 8.4141 19.6772C8.76668 19.422 8.78518 19.3272 8.56208 18.9282C8.45864 18.7433 8.30236 18.4503 8.2144 18.2774C8.12682 18.1042 7.9124 17.7078 7.738 17.3963C7.56397 17.0849 7.37786 16.7451 7.32501 16.6413C7.27178 16.5375 7.14683 16.2986 7.04717 16.1098C6.84105 15.7199 6.84559 15.6912 7.12607 15.6357C7.23819 15.6134 7.45714 15.5549 7.61304 15.5054C7.76857 15.456 8.19326 15.3299 8.55679 15.2253C8.91995 15.1211 9.38729 14.9818 9.59492 14.9162C9.80254 14.8505 10.1498 14.7444 10.3669 14.681L10.7618 14.5651L10.7267 14.1249C10.684 13.5949 10.5341 12.1423 10.4148 11.1053C10.3669 10.6904 10.3326 10.3465 10.339 10.3412C10.3552 10.3265 11.4065 10.4322 12.6149 10.5693C13.2031 10.6364 13.889 10.7063 14.1393 10.7252L14.5942 10.7595L14.6327 10.5862C14.6542 10.4907 14.7078 10.2993 14.7519 10.1612C14.7961 10.0226 14.8773 9.75347 14.9324 9.56321C15.1189 8.91807 15.4201 7.89731 15.5081 7.61305C15.556 7.45714 15.6134 7.23819 15.6357 7.12607C15.6923 6.83993 15.7406 6.83125 16.1185 7.04038C16.3023 7.14231 16.6651 7.33257 16.9245 7.46356C17.1842 7.59455 17.4356 7.73121 17.4835 7.76745C17.5919 7.84936 18.5424 8.36729 18.9864 8.58662C19.3748 8.77839 19.4005 8.76933 19.7644 8.30501C19.9135 8.11475 20.0717 7.93619 20.1158 7.90863C20.16 7.88107 20.1963 7.81728 20.1963 7.76707C20.1963 7.71686 20.2189 7.67571 20.2461 7.67571C20.2736 7.67571 20.399 7.54132 20.5243 7.37711C20.6496 7.21252 20.8255 6.99319 20.9154 6.88938C21.0052 6.78557 21.2838 6.44053 21.5341 6.12268C22.0841 5.4243 22.0003 5.43336 22.4684 6.02415ZM104.471 9.83086C104.351 9.96827 104.347 10.0944 104.33 14.0785L104.313 18.1849L103.984 17.9388C103.636 17.6787 102.84 17.2786 102.523 17.2053C102.419 17.1812 102.207 17.1249 102.051 17.08C101.377 16.8863 100.318 16.7825 99.3361 16.8142C98.2655 16.849 97.7132 16.9448 96.7974 17.2552C95.8703 17.5692 94.5713 18.462 94.1126 19.1007C94.0028 19.2536 93.8899 19.3782 93.8608 19.3782C93.8322 19.3782 93.8088 19.4209 93.8088 19.4726C93.8088 19.5247 93.7876 19.5673 93.7616 19.5673C93.7178 19.5677 93.5981 19.747 93.3829 20.1332C93.2523 20.368 92.8235 21.4001 92.7816 21.5805C92.7612 21.667 92.6872 21.9501 92.6166 22.2095C92.1266 24.0143 92.178 27.7361 92.7144 29.2899C92.7627 29.4295 92.8031 29.5851 92.8042 29.636C92.8054 29.6866 92.8612 29.8414 92.928 29.9799C92.9949 30.1181 93.0504 30.2521 93.0515 30.2774C93.0587 30.4284 93.6861 31.5832 93.7616 31.5839C93.7876 31.5839 93.8088 31.6168 93.8088 31.6564C93.8088 32.1324 96.1874 33.975 96.8016 33.975C96.8556 33.975 96.9503 34.0018 97.0115 34.0346C97.6143 34.3574 100.016 34.4635 101.327 34.2257C102.601 33.9943 103.185 33.7689 103.884 33.2381L104.302 32.9206L104.327 33.3064C104.371 33.986 104.343 33.975 106.028 33.975C107.378 33.975 107.469 33.9675 107.588 33.8493C107.712 33.7243 107.713 33.6394 107.713 21.7063V9.6893H106.155C104.617 9.6893 104.594 9.69119 104.471 9.83086ZM127.719 9.87956C127.514 10.0849 127.558 30.6768 127.766 31.371C128.378 33.4235 129.615 34.1638 132.435 34.1638C133.904 34.1638 133.787 34.2936 133.809 32.6315C133.831 30.9629 133.885 31.0596 132.91 31.0154C132.04 30.9758 131.695 30.8837 131.407 30.6134C130.962 30.1943 130.993 30.9988 130.993 19.8176V9.75196H129.419C127.923 9.75196 127.84 9.75838 127.719 9.87956ZM62.685 10.621C62.403 10.7357 61.973 11.0815 61.973 11.1936C61.973 11.2314 61.9481 11.262 61.9176 11.262C61.8477 11.262 61.5363 11.9075 61.2498 12.6463C61.1894 12.8018 61.1165 12.986 61.0878 13.0551C61.0595 13.1245 60.9749 13.3367 60.9002 13.527C60.8254 13.7172 60.7405 13.9298 60.7114 13.9988C60.6824 14.0683 60.5971 14.2805 60.5223 14.4707C60.4476 14.661 60.2871 15.0573 60.1652 15.3518C60.0436 15.6459 59.921 15.943 59.8923 16.0124C59.864 16.0815 59.7794 16.294 59.7047 16.4843C59.6303 16.6746 59.5453 16.8867 59.5159 16.9562C59.4868 17.0253 59.4026 17.2378 59.329 17.428C59.2554 17.6183 59.1588 17.8588 59.1142 17.9626C59.0418 18.1317 58.8349 18.63 58.6963 18.9694C58.668 19.0385 58.5835 19.251 58.5084 19.4413C58.4332 19.6315 58.3324 19.8765 58.2849 19.9856C58.2369 20.0947 58.198 20.2125 58.198 20.248C58.198 20.2831 58.1561 20.3922 58.1052 20.49C58.0131 20.6666 57.9621 20.7874 57.6986 21.4545C57.6235 21.6447 57.5367 21.8573 57.5061 21.9263C57.4306 22.0962 57.0187 23.109 56.8666 23.4994C56.7994 23.6723 56.7205 23.8705 56.6922 23.9399C56.6635 24.009 56.5918 24.1928 56.5325 24.3488C56.4732 24.5043 56.3879 24.7168 56.3434 24.8206C56.1897 25.1762 55.8187 26.0788 55.6839 26.425C55.6095 26.6153 55.5253 26.8278 55.4967 26.8969C55.468 26.966 55.3951 27.1502 55.3347 27.3057C55.2743 27.4616 55.1882 27.6738 55.1437 27.7776C55.0142 28.0777 54.636 29.0041 54.4883 29.382C54.414 29.5722 54.3298 29.7848 54.3011 29.8538C54.2728 29.9233 54.1999 30.1071 54.1395 30.263C54.0791 30.4186 53.9934 30.6311 53.9489 30.7349C53.9047 30.8387 53.8198 31.0509 53.7605 31.2068C53.7013 31.3623 53.6027 31.6032 53.5416 31.7413C53.4804 31.8799 53.3392 32.2196 53.2279 32.4963C53.1169 32.7734 52.9825 33.1049 52.9297 33.2328C52.8768 33.3612 52.83 33.5737 52.8258 33.7047L52.8187 33.9437L54.36 33.9614C55.2079 33.9708 55.9602 33.9644 56.0323 33.9471C56.1852 33.9097 56.2981 33.6923 56.7847 32.4963C56.9115 32.1849 57.0391 31.8735 57.0686 31.8044C57.0976 31.7353 57.1826 31.5228 57.2573 31.3325C57.3321 31.1422 57.417 30.9297 57.4464 30.8606C57.4763 30.7915 57.5737 30.5507 57.6631 30.3257C57.7526 30.1007 57.8515 29.8603 57.8821 29.7912C58.1297 29.2366 58.3868 28.5903 58.3868 28.5213C58.3868 28.4522 59.2347 28.4405 63.2354 28.4537L68.0836 28.4699L68.1686 28.627C68.215 28.7138 68.3573 29.0392 68.4849 29.3506C68.6125 29.6621 68.7533 30.0018 68.7975 30.1056C68.8417 30.2094 68.9273 30.4216 68.9877 30.5775C69.1656 31.0358 69.1908 31.0985 69.3199 31.3955C69.3879 31.5511 69.5064 31.8342 69.5838 32.0245C69.6616 32.2147 69.7609 32.4556 69.8047 32.5594C69.8484 32.6632 69.9779 32.9746 70.0923 33.2513C70.4196 34.0448 70.2324 33.9795 72.1289 33.9603C74.1044 33.9403 74.0312 34.0294 73.3301 32.4963C73.2826 32.3925 73.1429 32.0498 73.0195 31.7345C72.896 31.419 72.7367 31.0226 72.665 30.8535C72.4985 30.4601 72.4562 30.3563 72.3222 30.0113C72.2618 29.8553 72.1761 29.6432 72.132 29.5394C72.0874 29.4356 72.0028 29.223 71.9436 29.0675C71.8843 28.9116 71.8122 28.7278 71.7831 28.6587C71.7544 28.5892 71.6559 28.3487 71.5646 28.1238C71.4732 27.8988 71.3626 27.63 71.3184 27.5262C71.2747 27.4224 71.1889 27.2098 71.1278 27.0543C71.067 26.8984 70.9809 26.6862 70.9364 26.5824C70.8922 26.4786 70.8073 26.2661 70.748 26.1105C70.6888 25.9546 70.617 25.7708 70.5883 25.7013C70.56 25.6323 70.4336 25.3208 70.3075 25.0094C70.0195 24.2985 69.8428 23.8674 69.7405 23.6251C69.6963 23.5213 69.6118 23.3091 69.5521 23.1532C69.4928 22.9977 69.4053 22.7784 69.3577 22.6659C69.3101 22.5534 69.2324 22.3691 69.1848 22.2566C69.1372 22.1442 69.0493 21.9248 68.9893 21.7693C68.8624 21.439 68.6722 20.9743 68.5004 20.5738C68.3645 20.2563 68.326 20.1604 68.172 19.7557C68.1127 19.6002 68.0278 19.3876 67.9836 19.2838C67.9391 19.18 67.8602 18.9818 67.8081 18.8437C67.7099 18.584 67.3105 17.6043 67.1663 17.2706C67.1218 17.1668 67.0365 16.9547 66.9768 16.7988C66.9175 16.6428 66.8326 16.4307 66.7881 16.3269C66.7439 16.2231 66.6574 16.0105 66.5967 15.855C66.5359 15.6991 66.4506 15.4869 66.4075 15.3831C66.3645 15.2793 66.2524 14.9981 66.158 14.7584C66.0636 14.5187 65.964 14.2778 65.9368 14.2235C65.9092 14.1691 65.8379 13.9973 65.7779 13.8418C65.7182 13.6859 65.6329 13.4737 65.5884 13.3699C65.5442 13.2661 65.4593 13.0536 65.4 12.898C65.3407 12.7421 65.2686 12.5583 65.2399 12.4888C65.2109 12.4198 65.1123 12.1797 65.0202 11.9554C64.5325 10.7648 63.6178 10.242 62.685 10.621ZM63.4419 16.909C63.5057 17.0732 63.5959 17.2925 63.6424 17.3963C63.6892 17.5002 63.8583 17.9109 64.0187 18.3088C64.1795 18.7066 64.4238 19.3012 64.5619 19.63C64.8802 20.388 64.8738 20.3718 65.1474 21.0456C65.4725 21.8459 65.8553 22.7716 66.0383 23.2004C66.2448 23.6847 66.3045 23.8297 66.4072 24.097C66.4668 24.2529 66.5446 24.4348 66.5801 24.5016C66.6152 24.5685 66.6661 24.6961 66.6929 24.7848C66.7197 24.8739 66.7616 24.9962 66.7862 25.0566C66.8285 25.1608 66.6378 25.1668 63.3007 25.1668C59.5099 25.1668 59.6582 25.1796 59.8315 24.8671C59.8647 24.807 59.9953 24.5028 60.1218 24.1913C60.2482 23.8799 60.4872 23.2997 60.6529 22.9018C60.8186 22.5035 61.0576 21.9233 61.1841 21.6119C61.3105 21.3004 61.437 20.989 61.4657 20.9199C61.494 20.8505 61.5672 20.6666 61.6276 20.5107C61.6884 20.3552 61.7956 20.1004 61.8662 19.9445C61.9368 19.7889 62.0165 19.6047 62.0433 19.5356C62.1206 19.3348 62.5442 18.2971 62.6401 18.0728C62.8296 17.6308 62.9051 17.4484 63.0108 17.1763C63.2705 16.5062 63.2822 16.499 63.4419 16.909ZM141.342 16.7735C140.532 16.8357 139.128 17.1812 138.385 17.5013C137.841 17.7357 137.212 18.0502 137.158 18.114C137.141 18.1347 137.052 18.1902 136.961 18.237C136.701 18.3707 136.356 18.7029 136.308 18.8656C136.266 19.0105 136.432 19.5662 136.519 19.5677C136.542 19.5681 136.617 19.6885 136.686 19.8354C136.754 19.9818 136.828 20.1162 136.849 20.1332C136.871 20.1506 137.007 20.3824 137.153 20.6481C137.531 21.3408 137.686 21.3624 138.499 20.8357C138.925 20.5594 139.074 20.4809 139.612 20.2484C140.439 19.8901 141.188 19.7599 142.412 19.7606C142.966 19.761 143.532 19.7855 143.67 19.815C143.809 19.8448 144.07 19.8992 144.251 19.9362C145.639 20.2208 146.528 21.3899 146.458 22.8388L146.439 23.2476L143.481 23.2846C139.867 23.3299 139.378 23.405 137.861 24.1528C134.741 25.6893 134.271 30.6851 137.024 33.0414C137.219 33.2083 137.398 33.345 137.422 33.3453C137.447 33.3457 137.592 33.4306 137.746 33.5345C137.9 33.6383 138.047 33.7232 138.073 33.7232C138.099 33.7232 138.236 33.7764 138.378 33.841C139.876 34.5231 142.769 34.5447 144.362 33.8855C144.97 33.6341 145.841 33.126 145.841 33.0226C145.841 32.9927 145.871 32.9682 145.908 32.9682C145.946 32.9682 146.077 32.855 146.202 32.7168C146.448 32.4427 146.533 32.4057 146.533 32.5733C146.533 33.8048 147.237 34.1668 149.632 34.1649L151 34.1638V32.8818C151 31.4106 151.023 31.4695 150.435 31.4001C149.755 31.32 149.81 31.7432 149.784 26.3937C149.758 21.3763 149.732 21.0305 149.284 19.8818C148.357 17.5032 145.648 16.4428 141.342 16.7735ZM116.836 16.8286C116.784 16.8414 116.515 16.8837 116.239 16.923C115.195 17.0709 113.825 17.5504 113.434 17.9045C113.379 17.9539 113.313 17.9943 113.287 17.9943C113.22 17.9943 112.49 18.5617 112.318 18.7485C112.237 18.8354 112.051 19.0339 111.905 19.1895C111.525 19.5919 111.222 20.0751 110.761 21.0143C109.729 23.1147 109.63 27.496 110.563 29.7912C110.882 30.5779 111.44 31.5843 111.557 31.5843C111.588 31.5843 111.614 31.616 111.614 31.6553C111.614 31.7478 112.646 32.7795 112.738 32.7795C112.778 32.7795 112.809 32.8044 112.809 32.8346C112.809 33.0158 114.416 33.798 115.326 34.0607C116.745 34.4695 118.983 34.4673 120.486 34.0558C121.323 33.8259 122.372 33.4106 122.55 33.2377C122.596 33.1932 122.659 33.157 122.69 33.157C122.855 33.157 123.807 32.4223 124.37 31.8603C125.244 30.989 125.248 30.924 124.466 30.2215C124.163 29.9501 123.842 29.6575 123.752 29.5707C123.05 28.898 122.937 28.8991 122.247 29.5854C120.661 31.1611 118.107 31.6572 115.926 30.8138C115.651 30.707 115.396 30.5968 115.36 30.5681C115.324 30.5398 115.206 30.4454 115.097 30.3582C114.988 30.2714 114.882 30.2 114.861 30.2C114.7 30.2 113.993 29.268 113.785 28.781C113.612 28.3755 113.371 27.5345 113.404 27.4484C113.429 27.385 114.595 27.3688 119.142 27.3688C123.388 27.3688 124.902 27.3495 125.056 27.294C125.337 27.1925 125.349 27.1011 125.301 25.4926C125.249 23.7432 125.134 22.9177 124.78 21.7376C124.624 21.2159 124.277 20.4571 124.028 20.0902C123.948 19.9724 123.883 19.849 123.883 19.8161C123.883 19.7829 123.857 19.7557 123.824 19.7557C123.792 19.7557 123.748 19.7006 123.727 19.633C123.523 18.9901 121.62 17.6315 120.339 17.2132C119.467 16.9286 117.372 16.6987 116.836 16.8286ZM82.7038 16.9403C81.3769 17.12 80.0319 17.8052 79.2486 18.7006L78.9605 19.0302V18.2306V17.4311L78.768 17.3318C78.4592 17.1721 75.9451 17.2212 75.7582 17.3903L75.6257 17.5103V25.6387C75.6257 33.4333 75.6306 33.7712 75.7409 33.8708C75.9096 34.0233 78.7095 34.0282 78.8616 33.8761C78.9496 33.7881 78.9605 33.2513 78.9605 28.9169C78.9605 23.1895 78.9613 23.1796 79.5158 22.0207C80.7306 19.482 85.044 19.3427 86.2554 21.8033C86.8016 22.9127 86.8205 23.1502 86.8231 28.8806C86.8246 33.1343 86.8363 33.7115 86.9228 33.8353C87.0194 33.9731 87.0413 33.975 88.5117 33.9731L90.0024 33.9712L90.1145 33.8165C90.2618 33.6145 90.2489 22.8984 90.1006 22.1151C89.8963 21.0351 89.5415 20.1094 89.0481 19.3695C88.768 18.9494 88.0677 18.183 87.9639 18.183C87.9333 18.183 87.8918 18.1404 87.8718 18.0887C87.8518 18.0366 87.7922 17.9943 87.7393 17.9943C87.6865 17.9943 87.6431 17.9679 87.6431 17.9354C87.6431 17.9033 87.5864 17.8588 87.5173 17.8369C87.4486 17.815 87.3558 17.7636 87.312 17.7225C87.1666 17.5877 86.6672 17.3669 85.9443 17.1185C85.2931 16.8946 83.691 16.8067 82.7038 16.9403ZM101.359 19.8992C101.584 19.9811 101.853 20.0932 101.956 20.1483C102.06 20.2038 102.235 20.2959 102.345 20.3533C102.998 20.6949 103.851 21.8127 104.205 22.7919C104.421 23.3873 104.425 27.6662 104.212 28.3163C103.018 31.9433 98.3523 32.5934 96.341 29.4122C96.2976 29.3438 96.2334 29.217 96.198 29.1305C96.1628 29.0441 96.1089 28.9165 96.0783 28.8474C95.7499 28.106 95.634 27.2566 95.6359 25.607C95.6389 23.2276 95.9892 22.0675 97.0488 20.929C98.0519 19.8516 99.9696 19.3933 101.359 19.8992ZM118.566 19.9116C120.587 20.2344 121.78 21.5571 121.993 23.71C122.092 24.7119 122.631 24.6039 117.631 24.5851L113.344 24.5688L113.365 24.0656C113.395 23.3182 113.782 22.063 114.111 21.644C115.24 20.2072 116.748 19.6209 118.566 19.9116ZM146.37 26.0226C146.522 26.0807 146.518 28.5182 146.365 28.9731C146.127 29.687 145.623 30.3789 145.117 30.6851C144.71 30.9324 144.159 31.1483 143.566 31.2929C142.659 31.5145 140.39 31.3729 140.087 31.0766C140.054 31.0441 139.989 31.018 139.943 31.018C139.766 31.018 139.02 30.402 138.914 30.1687C138.883 30.0992 138.832 30.0003 138.802 29.9482C138.599 29.6032 138.543 29.3442 138.543 28.764C138.543 27.0113 139.595 26.1781 141.971 26.0501C143.03 25.9931 146.241 25.9731 146.37 26.0226Z" fill="#345CDC"/>
</g>
<defs>
<clipPath id="clip0_3_405">
<rect width="151" height="44.0635" fill="white"/>
</clipPath>
</defs>
</svg>
