<svg width="186" height="51" viewBox="0 0 186 51" fill="none" xmlns="http://www.w3.org/2000/svg">
<g clip-path="url(#clip0_9_1323)">
<path fill-rule="evenodd" clip-rule="evenodd" d="M61.2866 26.616L61.9167 23.0289C61.9167 23.0289 57.0648 21.4531 53.116 24.3755V38.7253H57.3093V27.0667C58.9803 25.7201 61.2866 26.616 61.2866 26.616Z" fill="#03435F"/>
<mask id="mask0_9_1323" style="mask-type:alpha" maskUnits="userSpaceOnUse" x="53" y="22" width="9" height="17">
<path d="M53.1159 24.3752C55.0158 22.9695 57.125 22.6045 58.802 22.6048C60.6105 22.6048 61.9168 23.0289 61.9168 23.0289L61.2865 26.6161C61.2865 26.6161 58.9802 25.7202 57.3092 27.0665V38.7251H53.1159V24.3752Z" fill="white"/>
</mask>
<g mask="url(#mask0_9_1323)">
<path fill-rule="evenodd" clip-rule="evenodd" d="M-202.146 83.2006L388.383 83.2006V-753.382H-202.146L-202.146 83.2006Z" fill="#03435F"/>
</g>
<mask id="mask1_9_1323" style="mask-type:alpha" maskUnits="userSpaceOnUse" x="53" y="22" width="9" height="17">
<path d="M53.1159 24.3752C55.0158 22.9695 57.1247 22.6048 58.802 22.6048C60.6105 22.6048 61.9168 23.0289 61.9168 23.0289L61.2865 26.6161C61.2865 26.6161 58.9802 25.7202 57.3092 27.0665V38.7251H53.1159V24.3752Z" fill="white"/>
</mask>
<g mask="url(#mask1_9_1323)">
<path fill-rule="evenodd" clip-rule="evenodd" d="M46.0858 45.7554H68.9468V15.5746H46.0858V45.7554Z" fill="#03435F"/>
</g>
<path fill-rule="evenodd" clip-rule="evenodd" d="M25.135 18.9378L29.3264 18.1481V22.8151H33.474V26.5474H29.3264V32.1133C29.3264 33.0615 29.4797 33.8142 29.7933 34.3708C30.1032 34.9359 30.7247 35.216 31.6581 35.216C32.1146 35.216 32.5729 35.1722 33.0564 35.0794C33.5263 34.9849 33.9644 34.8636 34.3587 34.7048L34.9517 38.2008C34.4444 38.4185 33.8836 38.6074 33.2654 38.7676C32.6452 38.9261 31.8837 39.0088 30.984 39.0088C29.8403 39.0088 28.8952 38.842 28.1436 38.5113C27.3958 38.1805 26.7946 37.7164 26.3463 37.1242C25.8981 36.5372 25.5829 35.8168 25.4061 34.9732C25.2259 34.1312 25.135 33.2014 25.135 32.1757V18.9378Z" fill="#03435F"/>
<mask id="mask2_9_1323" style="mask-type:alpha" maskUnits="userSpaceOnUse" x="25" y="18" width="10" height="22">
<path d="M25.1352 18.9378L29.3266 18.1481V22.8151H33.4742V26.5474H29.3266V32.1133C29.3266 33.0617 29.4799 33.8142 29.7932 34.3708C30.1031 34.9362 30.7247 35.216 31.658 35.216C32.1145 35.216 32.5726 35.1722 33.0564 35.0794C33.5262 34.9849 33.9646 34.8636 34.3589 34.7051L34.9516 38.2008C34.4446 38.4187 33.8835 38.6077 33.2653 38.7678C32.6451 38.9264 31.8837 39.0088 30.984 39.0088C29.84 39.0088 28.8951 38.842 28.1438 38.5113C27.3957 38.1805 26.7942 37.7164 26.3462 37.1245C25.898 36.5372 25.5831 35.8168 25.4063 34.9732C25.2258 34.1312 25.1352 33.2016 25.1352 32.1757V18.9378Z" fill="white"/>
</mask>
<g mask="url(#mask2_9_1323)">
<path fill-rule="evenodd" clip-rule="evenodd" d="M-202.146 83.2006L388.383 83.2006V-753.382H-202.146L-202.146 83.2006Z" fill="#03435F"/>
<path fill-rule="evenodd" clip-rule="evenodd" d="M18.1047 46.0389H41.9815V11.1178H18.1047L18.1047 46.0389Z" fill="#03435F"/>
</g>
<path fill-rule="evenodd" clip-rule="evenodd" d="M68.125 35.5117C68.8916 35.5117 69.434 35.4271 69.756 35.2685C70.0758 35.1084 70.2308 34.7946 70.2308 34.3357C70.2308 33.9729 70.0287 33.6575 69.6142 33.3891C69.1999 33.1159 68.5765 32.8122 67.7309 32.4662C67.0754 32.2047 66.4791 31.935 65.9416 31.6565C65.411 31.3731 64.9562 31.0424 64.5805 30.6492C64.2062 30.2579 63.9166 29.7886 63.7076 29.2421C63.4987 28.7054 63.3996 28.056 63.3996 27.2899C63.3996 25.8066 63.9166 24.6307 64.9461 23.7685C65.9769 22.9098 67.389 22.4712 69.1914 22.4712C70.0928 22.4712 70.9553 22.5571 71.7808 22.731C72.6047 22.8997 73.2635 23.0921 73.7467 23.286L73.0173 26.7784C72.5288 26.598 71.9982 26.4394 71.427 26.3011C70.8559 26.1596 70.2124 26.0851 69.5014 26.0851C68.189 26.0851 67.5319 26.4799 67.5319 27.2611C67.5319 27.4416 67.5606 27.602 67.6179 27.7419C67.6751 27.8837 67.7865 28.0187 67.9516 28.1485C68.125 28.2769 68.3508 28.4218 68.6438 28.5705C68.9351 28.7273 69.3059 28.8891 69.756 29.0731C70.6705 29.4376 71.4303 29.7919 72.0302 30.1498C72.6315 30.5073 73.1033 30.8838 73.4521 31.3019C73.799 31.7104 74.0452 32.1628 74.1832 32.6652C74.3214 33.1665 74.3937 33.7451 74.3937 34.405C74.3937 35.9689 73.8445 37.1515 72.7512 37.9513C71.6527 38.7478 70.0994 39.1492 68.0929 39.1492C66.7822 39.1492 65.6905 39.0328 64.8196 38.7883C63.9453 38.5504 63.3421 38.3447 63.0053 38.1859L63.7076 34.5449C64.4171 34.8452 65.155 35.078 65.8997 35.2537C66.6544 35.4257 67.389 35.5117 68.125 35.5117Z" fill="#03435F"/>
<mask id="mask3_9_1323" style="mask-type:alpha" maskUnits="userSpaceOnUse" x="63" y="22" width="12" height="18">
<path d="M64.9459 23.7687C65.9771 22.9098 67.3888 22.4712 69.1913 22.4712C70.0929 22.4712 70.9554 22.5571 71.7809 22.731C72.6045 22.8997 73.2633 23.0919 73.7468 23.286L73.0174 26.7784C72.5287 26.598 71.9983 26.4394 71.4269 26.3012C70.856 26.1593 70.2123 26.0854 69.5015 26.0854C68.1889 26.0854 67.532 26.4797 67.532 27.2611C67.532 27.4416 67.5605 27.602 67.6177 27.7419C67.6752 27.8837 67.7866 28.0187 67.9518 28.1485C68.1248 28.2769 68.351 28.4218 68.6439 28.5705C68.9353 28.7271 69.3057 28.8894 69.7559 29.0732C70.6707 29.4376 71.4305 29.7919 72.0301 30.1498C72.6316 30.5074 73.1034 30.8835 73.4522 31.3019C73.7992 31.7104 74.045 32.1625 74.1833 32.6652C74.3216 33.1665 74.3936 33.7451 74.3936 34.405C74.3936 35.9689 73.8443 37.1518 72.7513 37.9513C71.6528 38.7478 70.0995 39.1492 68.093 39.1492C66.7823 39.1492 65.6907 39.0328 64.8197 38.7883C63.9452 38.5504 63.3423 38.3447 63.0052 38.1859L63.7078 34.5449C64.4172 34.8455 65.1548 35.078 65.8996 35.2537C66.6542 35.4254 67.3888 35.5117 68.1248 35.5117C68.8915 35.5117 69.4341 35.4273 69.7559 35.2685C70.076 35.1084 70.2309 34.7946 70.2309 34.3357C70.2309 33.9729 70.0288 33.6575 69.6143 33.3891C69.1998 33.1159 68.5763 32.8122 67.7308 32.4662C67.0753 32.2047 66.4793 31.935 65.9415 31.6565C65.4111 31.3731 64.9561 31.0424 64.5807 30.6492C64.2064 30.2576 63.9167 29.7886 63.7078 29.2421C63.4989 28.7052 63.3995 28.056 63.3995 27.2899C63.3995 25.8069 63.9167 24.6309 64.9459 23.7687Z" fill="white"/>
</mask>
<g mask="url(#mask3_9_1323)">
<path fill-rule="evenodd" clip-rule="evenodd" d="M-202.146 83.2006L388.383 83.2006V-753.382H-202.146L-202.146 83.2006Z" fill="#03435F"/>
<path fill-rule="evenodd" clip-rule="evenodd" d="M55.9753 46.1794H81.4242V15.441H55.9753V46.1794Z" fill="#03435F"/>
</g>
<path fill-rule="evenodd" clip-rule="evenodd" d="M87.3122 29.6377C86.9365 31.1631 86.5406 32.6816 86.1178 34.1831C85.6964 35.6899 85.2482 37.2051 84.7852 38.7302H81.522C81.1833 37.8866 80.8145 36.8845 80.4202 35.7219C80.0224 34.5544 79.6166 33.2872 79.1903 31.9089C78.7689 30.5352 78.3379 29.081 77.8963 27.5423C77.4533 26.0103 77.0237 24.4614 76.6127 22.8939H81.03C81.1765 23.6143 81.3432 24.4058 81.5234 25.2576C81.7022 26.1113 81.8908 26.9905 82.0879 27.8949C82.2851 28.796 82.4956 29.7017 82.7111 30.6163C82.9285 31.5308 83.1511 32.4064 83.3765 33.2486C83.621 32.3661 83.8603 31.4651 84.0944 30.5421C84.3252 29.6177 84.5527 28.7098 84.7699 27.8174C84.984 26.9265 85.1946 26.061 85.3865 25.2275C85.582 24.3954 85.7556 23.6143 85.9089 22.8939H88.9429C89.0979 23.6143 89.2611 24.3954 89.4514 25.2275C89.6368 26.061 89.8342 26.9265 90.0431 27.8174C90.2452 28.7098 90.4658 29.6177 90.6865 30.5421C90.9138 31.4651 91.1465 32.3661 91.3875 33.2486C91.6147 32.4064 91.8406 31.5308 92.0679 30.6163C92.2954 29.7017 92.5093 28.796 92.7047 27.8949C92.9003 26.9905 93.0889 26.1113 93.271 25.2576C93.4512 24.4058 93.6146 23.6143 93.7644 22.8939H98.1245C97.7102 24.4614 97.2839 26.0103 96.8409 27.5423C96.3943 29.081 95.968 30.5352 95.5419 31.9089C95.1222 33.2872 94.7079 34.5544 94.3051 35.7219C93.8994 36.8845 93.5251 37.8866 93.1919 38.7302H89.9286C89.4566 37.2051 88.9985 35.6899 88.547 34.1831C88.0971 32.6816 87.6895 31.1631 87.3122 29.6377Z" fill="#03435F"/>
<mask id="mask4_9_1323" style="mask-type:alpha" maskUnits="userSpaceOnUse" x="76" y="22" width="23" height="17">
<path d="M93.7645 22.8939H98.1246C97.7103 24.4614 97.284 26.0103 96.8407 27.542C96.3944 29.081 95.9681 30.5355 95.5417 31.9089C95.1223 33.2872 94.708 34.5544 94.305 35.7219C93.8992 36.8845 93.5252 37.8863 93.1917 38.7302H89.9285C89.4567 37.2051 88.9986 35.6896 88.5471 34.1829C88.0972 32.6816 87.6896 31.1631 87.3123 29.6377C86.9363 31.1631 86.5404 32.6816 86.1179 34.1829C85.6965 35.6896 85.2483 37.2051 84.785 38.7302H81.5218C81.1831 37.8863 80.8143 36.8845 80.42 35.7219C80.0225 34.5544 79.6164 33.2872 79.1904 31.9089C78.769 30.5355 78.3377 29.081 77.8964 27.542C77.4534 26.0103 77.0237 24.4614 76.6128 22.8939H81.0298C81.1766 23.6143 81.3433 24.4055 81.5235 25.2576C81.7023 26.1114 81.8906 26.9905 82.088 27.8946C82.2849 28.7957 82.4957 29.7018 82.7112 30.6163C82.9286 31.5308 83.1512 32.4064 83.3766 33.2486C83.6208 32.3662 83.8601 31.4648 84.0942 30.5421C84.325 29.6177 84.5528 28.7098 84.77 27.8174C84.9838 26.9262 85.1944 26.0607 85.3866 25.2275C85.5821 24.3954 85.7557 23.6143 85.9087 22.8939H88.943C89.0977 23.6143 89.2612 24.3954 89.4515 25.2275C89.6369 26.0607 89.8343 26.9262 90.0429 27.8174C90.2453 28.7098 90.4657 29.6177 90.6866 30.5421C90.9139 31.4648 91.1466 32.3662 91.3873 33.2486C91.6148 32.4064 91.8405 31.5308 92.068 30.6163C92.2955 29.7018 92.5094 28.7957 92.7048 27.8946C92.9004 26.9905 93.089 26.1114 93.2708 25.2576C93.4513 24.4055 93.6147 23.6143 93.7645 22.8939Z" fill="white"/>
</mask>
<g mask="url(#mask4_9_1323)">
<path fill-rule="evenodd" clip-rule="evenodd" d="M-202.146 83.2006L388.383 83.2006V-753.382H-202.146L-202.146 83.2006Z" fill="#03435F"/>
<path fill-rule="evenodd" clip-rule="evenodd" d="M69.5826 45.7605H105.155V15.8638L69.5826 15.8638V45.7605Z" fill="#03435F"/>
</g>
<path fill-rule="evenodd" clip-rule="evenodd" d="M101.087 38.7241H105.272V22.8911H101.087V38.7241Z" fill="#03435F"/>
<mask id="mask5_9_1323" style="mask-type:alpha" maskUnits="userSpaceOnUse" x="101" y="22" width="5" height="17">
<path d="M101.087 38.7244V22.8914H105.272V38.7244H101.087Z" fill="white"/>
</mask>
<g mask="url(#mask5_9_1323)">
<path fill-rule="evenodd" clip-rule="evenodd" d="M-202.146 83.2006L388.383 83.2006V-753.382H-202.146L-202.146 83.2006Z" fill="#03435F"/>
<path fill-rule="evenodd" clip-rule="evenodd" d="M94.0571 45.7543H112.302V15.8609H94.0571V45.7543Z" fill="#03435F"/>
</g>
<path fill-rule="evenodd" clip-rule="evenodd" d="M108.601 18.9425L112.789 18.1479V22.899H116.934V26.6244H112.789V32.1958C112.789 33.1388 112.944 33.8983 113.252 34.4533C113.561 35.0152 114.186 35.2969 115.121 35.2969C115.574 35.2969 116.039 35.2564 116.514 35.1636C116.994 35.0724 117.429 34.9426 117.825 34.7857L118.413 38.2784C117.906 38.5007 117.341 38.6899 116.727 38.8517C116.104 39.0103 115.352 39.0913 114.448 39.0913C113.303 39.0913 112.358 38.9262 111.608 38.5919C110.857 38.2663 110.257 37.8058 109.809 37.2084C109.361 36.6213 109.048 35.8974 108.867 35.059C108.685 34.2138 108.601 33.279 108.601 32.258V18.9425Z" fill="#03435F"/>
<mask id="mask6_9_1323" style="mask-type:alpha" maskUnits="userSpaceOnUse" x="108" y="18" width="11" height="22">
<path d="M108.601 18.9427L112.789 18.1481V22.8992H116.934V26.6246H112.789V32.1959C112.789 33.1389 112.944 33.8982 113.253 34.4535C113.561 35.0153 114.186 35.2968 115.121 35.2968C115.574 35.2968 116.039 35.2565 116.514 35.1637C116.994 35.0722 117.429 34.9428 117.825 34.7858L118.413 38.2782C117.906 38.5008 117.341 38.69 116.727 38.8518C116.105 39.0104 115.352 39.0914 114.449 39.0914C113.303 39.0914 112.358 38.9263 111.608 38.592C110.857 38.2662 110.257 37.8059 109.809 37.2087C109.361 36.6214 109.048 35.8978 108.867 35.0591C108.686 34.2139 108.601 33.2788 108.601 32.2584V18.9427Z" fill="white"/>
</mask>
<g mask="url(#mask6_9_1323)">
<path fill-rule="evenodd" clip-rule="evenodd" d="M-202.146 83.2006L388.383 83.2006V-753.382H-202.146L-202.146 83.2006Z" fill="#03435F"/>
<path fill-rule="evenodd" clip-rule="evenodd" d="M101.571 46.1217H125.443V11.1178H101.571V46.1217Z" fill="#03435F"/>
</g>
<path fill-rule="evenodd" clip-rule="evenodd" d="M119.893 30.8158C119.893 29.6699 120.067 28.5903 120.414 27.578C120.761 26.5623 121.261 25.6817 121.917 24.9273C122.573 24.1733 123.369 23.5791 124.309 23.1356C125.244 22.6986 126.312 22.4724 127.511 22.4724C128.298 22.4724 129.021 22.5518 129.678 22.7002C130.335 22.8538 130.975 23.0682 131.59 23.3464L130.721 26.9286C130.325 26.7698 129.895 26.6315 129.423 26.5067C128.955 26.3884 128.428 26.3262 127.848 26.3262C126.612 26.3262 125.687 26.7394 125.082 27.5627C124.467 28.388 124.167 29.4695 124.167 30.8158C124.167 32.2379 124.452 33.343 125.028 34.1261C125.594 34.9073 126.595 35.3005 128.018 35.3005C128.525 35.3005 129.066 35.2479 129.651 35.1485C130.23 35.0472 130.764 34.8887 131.256 34.666L131.843 38.3408C131.354 38.5617 130.748 38.7474 130.017 38.9108C129.282 39.0699 128.478 39.1523 127.599 39.1523C126.249 39.1523 125.084 38.933 124.111 38.5026C123.138 38.0725 122.334 37.4852 121.707 36.7429C121.076 35.9989 120.621 35.1217 120.33 34.1091C120.038 33.0952 119.893 31.9954 119.893 30.8158Z" fill="#03435F"/>
<mask id="mask7_9_1323" style="mask-type:alpha" maskUnits="userSpaceOnUse" x="119" y="22" width="13" height="18">
<path d="M124.309 23.1357C125.244 22.6987 126.312 22.4725 127.511 22.4725C128.298 22.4725 129.021 22.5517 129.678 22.7001C130.335 22.8539 130.975 23.0681 131.59 23.3465L130.721 26.9284C130.325 26.7699 129.895 26.6316 129.423 26.5068C128.955 26.3882 128.428 26.3261 127.848 26.3261C126.612 26.3261 125.687 26.7395 125.082 27.5629C124.467 28.3878 124.167 29.4693 124.167 30.8159C124.167 32.2381 124.452 33.3432 125.028 34.1262C125.594 34.9074 126.595 35.3006 128.018 35.3006C128.525 35.3006 129.066 35.248 129.651 35.1486C130.23 35.0473 130.764 34.8888 131.256 34.6659L131.843 38.3409C131.354 38.5619 130.748 38.7472 130.016 38.911C129.282 39.0698 128.478 39.1525 127.599 39.1525C126.249 39.1525 125.084 38.9329 124.111 38.5025C123.138 38.0723 122.334 37.4853 121.707 36.7433C121.076 35.9991 120.621 35.1218 120.33 34.1093C120.038 33.0954 119.893 31.9952 119.893 30.8159C119.893 29.6701 120.067 28.5904 120.414 27.5782C120.761 26.5624 121.261 25.6815 121.916 24.9272C122.573 24.1731 123.369 23.5793 124.309 23.1357Z" fill="white"/>
</mask>
<g mask="url(#mask7_9_1323)">
<path fill-rule="evenodd" clip-rule="evenodd" d="M-202.146 83.2006L388.383 83.2006V-753.382H-202.146L-202.146 83.2006Z" fill="#03435F"/>
<path fill-rule="evenodd" clip-rule="evenodd" d="M112.863 46.1827H138.872V15.4423H112.863V46.1827Z" fill="#03435F"/>
</g>
<path fill-rule="evenodd" clip-rule="evenodd" d="M134.55 38.7246V18.9367L138.74 18.1489V22.9575C139.02 22.8578 139.379 22.7618 139.823 22.6708C140.261 22.5813 140.691 22.5339 141.102 22.5339C142.3 22.5339 143.295 22.7111 144.094 23.0605C144.889 23.4115 145.531 23.9093 146.006 24.5519C146.488 25.1915 146.821 25.9573 147.022 26.8365C147.216 27.722 147.313 28.7077 147.313 29.7909V38.7246H143.125V30.3289C143.125 28.8846 142.952 27.8622 142.606 27.2565C142.259 26.6607 141.616 26.359 140.681 26.359C140.3 26.359 139.953 26.3946 139.623 26.4619C139.296 26.5329 139.001 26.6104 138.74 26.6897V38.7246H134.55Z" fill="#03435F"/>
<mask id="mask8_9_1323" style="mask-type:alpha" maskUnits="userSpaceOnUse" x="134" y="18" width="14" height="21">
<path d="M134.55 18.9366L138.74 18.1488V22.9577C139.02 22.8577 139.379 22.7616 139.823 22.6707C140.261 22.5812 140.691 22.5341 141.102 22.5341C142.3 22.5341 143.296 22.7113 144.094 23.0604C144.889 23.4116 145.531 23.9092 146.006 24.5521C146.488 25.1914 146.822 25.9572 147.022 26.8367C147.216 27.7222 147.313 28.7076 147.313 29.791V38.7245H143.125V30.3288C143.125 28.8847 142.951 27.8621 142.606 27.2564C142.259 26.6609 141.616 26.3589 140.681 26.3589C140.3 26.3589 139.953 26.3945 139.623 26.4621C139.296 26.5327 139.001 26.6102 138.74 26.6896V38.7245H134.55V18.9366Z" fill="white"/>
</mask>
<g mask="url(#mask8_9_1323)">
<path fill-rule="evenodd" clip-rule="evenodd" d="M-202.146 83.2006L388.383 83.2006V-753.382H-202.146L-202.146 83.2006Z" fill="#03435F"/>
<path fill-rule="evenodd" clip-rule="evenodd" d="M127.52 45.7548H154.343V11.1185H127.52V45.7548Z" fill="#03435F"/>
</g>
<path fill-rule="evenodd" clip-rule="evenodd" d="M8.23287 38.7297V24.3815C8.23287 24.3815 10.3387 22.5812 14.9447 22.5812C19.1361 22.5812 21.4377 24.8237 21.4377 29.7588V38.7297H17.2512V29.7588C17.2512 26.6155 15.782 26.3978 14.5268 26.3978C13.2717 26.3978 12.4311 27.0659 12.4311 27.0659V38.7297H8.23287Z" fill="#03435F"/>
<mask id="mask9_9_1323" style="mask-type:alpha" maskUnits="userSpaceOnUse" x="8" y="22" width="14" height="17">
<path d="M8.23293 24.3815C8.23293 24.3815 10.3388 22.5812 14.9447 22.5812C19.1361 22.5812 21.4374 24.8234 21.4374 29.759V38.7297H17.2512V29.759C17.2512 26.6152 15.782 26.3978 14.5269 26.3978C13.2718 26.3978 12.4312 27.0662 12.4312 27.0662V38.7297H8.23293V24.3815Z" fill="white"/>
</mask>
<g mask="url(#mask9_9_1323)">
<path fill-rule="evenodd" clip-rule="evenodd" d="M-202.146 83.2006L388.383 83.2006V-753.382H-202.146L-202.146 83.2006Z" fill="#03435F"/>
<path fill-rule="evenodd" clip-rule="evenodd" d="M1.20311 45.76H28.4676L28.4676 15.5513H1.20311L1.20311 45.76Z" fill="#03435F"/>
</g>
<path fill-rule="evenodd" clip-rule="evenodd" d="M0.345154 38.7299L0.345154 18.9385L4.53659 18.1488L4.53659 38.7299H0.345154Z" fill="#03435F"/>
<mask id="mask10_9_1323" style="mask-type:alpha" maskUnits="userSpaceOnUse" x="0" y="18" width="5" height="21">
<path d="M0.345154 18.9388L4.53659 18.1488L4.53659 38.7299H0.345154L0.345154 18.9388Z" fill="white"/>
</mask>
<g mask="url(#mask10_9_1323)">
<path fill-rule="evenodd" clip-rule="evenodd" d="M-202.146 83.2006L388.383 83.2006V-753.382H-202.146L-202.146 83.2006Z" fill="#03435F"/>
<path fill-rule="evenodd" clip-rule="evenodd" d="M-6.68504 45.76H11.5668L11.5668 11.1188H-6.68504L-6.68504 45.76Z" fill="#03435F"/>
</g>
<path fill-rule="evenodd" clip-rule="evenodd" d="M49.8386 31.9495H40.4109C40.4109 31.9495 40.6215 35.3122 44.8079 35.3122C46.9039 35.3122 48.9996 34.6422 48.9996 34.6422L49.4191 38.2342C49.4191 38.2342 47.325 39.1235 44.3937 39.1235C40.2004 39.1235 36.43 36.8844 36.43 30.6065C36.43 25.6696 39.3614 22.5348 43.5515 22.5348C49.8386 22.5348 50.2597 29.2531 49.8386 31.9495ZM43.3458 25.6696C40.6215 25.6696 40.4109 28.8077 40.4109 28.8077H46.2736C46.2736 28.8077 46.0683 25.6696 43.3458 25.6696Z" fill="#03435F"/>
<mask id="mask11_9_1323" style="mask-type:alpha" maskUnits="userSpaceOnUse" x="36" y="22" width="14" height="18">
<path d="M36.4302 30.6065C36.4302 25.6695 39.3616 22.5347 43.5513 22.5347C49.8384 22.5347 50.2596 29.2534 49.8384 31.9495H40.4111C40.4111 31.9495 40.6216 35.3121 44.8078 35.3121C46.9038 35.3121 48.9995 34.6421 48.9995 34.6421L49.419 38.2342C49.419 38.2342 47.3249 39.1238 44.3936 39.1238C40.2005 39.1238 36.4302 36.8846 36.4302 30.6065ZM43.3457 25.6695C40.6216 25.6695 40.4111 28.8079 40.4111 28.8079H46.2738C46.2738 28.8079 46.0682 25.6695 43.3457 25.6695Z" fill="white"/>
</mask>
<g mask="url(#mask11_9_1323)">
<path fill-rule="evenodd" clip-rule="evenodd" d="M-202.146 83.2006L388.383 83.2006V-753.382H-202.146L-202.146 83.2006Z" fill="#03435F"/>
<path fill-rule="evenodd" clip-rule="evenodd" d="M29.4001 46.1537H56.9859V15.5045H29.4001L29.4001 46.1537Z" fill="#03435F"/>
</g>
<mask id="mask12_9_1323" style="mask-type:alpha" maskUnits="userSpaceOnUse" x="152" y="15" width="29" height="36">
<path d="M152.865 18.1527C152.865 17.196 164.915 15.1315 172.997 15.1315C176.502 15.1315 179.26 15.5198 179.965 16.5548C183.604 21.3601 157.987 51.5074 155.852 50.5929C154.14 50.1356 169.51 30.9468 166.948 23.1773C165.669 19.0689 152.865 19.5259 152.865 18.1527Z" fill="white"/>
</mask>
<g mask="url(#mask12_9_1323)">
<path fill-rule="evenodd" clip-rule="evenodd" d="M145.835 57.6436H187.349V8.10152H145.835V57.6436Z" fill="#ED342B"/>
</g>
<mask id="mask13_9_1323" style="mask-type:alpha" maskUnits="userSpaceOnUse" x="174" y="0" width="12" height="13">
<path d="M174.63 6.27526C174.63 2.99372 177.115 0.338079 180.178 0.338079C183.244 0.338079 185.726 2.99372 185.726 6.27526C185.726 9.55848 183.244 12.2141 180.178 12.2141C177.115 12.2141 174.63 9.55848 174.63 6.27526Z" fill="white"/>
</mask>
<g mask="url(#mask13_9_1323)">
<path fill-rule="evenodd" clip-rule="evenodd" d="M167.601 19.2444H192.756V-6.69234H167.601V19.2444Z" fill="#ED342B"/>
</g>
</g>
<defs>
<clipPath id="clip0_9_1323">
<rect width="186" height="50.9514" fill="white"/>
</clipPath>
</defs>
</svg>
