<svg width="172" height="60" viewBox="0 0 172 60" fill="none" xmlns="http://www.w3.org/2000/svg">
<g clip-path="url(#clip0_64_581)">
<path fill-rule="evenodd" clip-rule="evenodd" d="M59.6987 30.0218C59.6987 46.3975 46.437 59.6726 30.0778 59.6726C13.7178 59.6726 0.455765 46.3975 0.455765 30.0218C0.455765 13.646 13.7178 0.370918 30.0778 0.370918C46.437 0.370918 59.6987 13.646 59.6987 30.0218Z" fill="#ED342B"/>
<path fill-rule="evenodd" clip-rule="evenodd" d="M30.0774 42.7227C23.4518 27.689 18.5937 13.6447 18.5937 13.6447H8.43664C8.43664 13.6447 14.6187 31.6706 26.102 54.2131H34.0528C45.5361 31.6706 51.7177 13.6447 51.7177 13.6447H41.5607C41.5607 13.6447 36.703 27.689 30.0774 42.7227Z" fill="#FEFEFE"/>
<path fill-rule="evenodd" clip-rule="evenodd" d="M157.644 28.4755C151.902 28.4755 151.461 34.6649 151.461 34.6649H163.826C163.826 34.6649 163.385 28.4755 157.644 28.4755ZM171.334 40.8532H151.461C151.461 40.8532 151.902 47.4852 160.736 47.4852C165.151 47.4852 169.568 46.1576 169.568 46.1576L170.452 53.2306C170.452 53.2306 166.035 55 159.852 55C151.02 55 143.07 50.5788 143.07 38.201C143.07 28.4755 149.254 22.2864 158.086 22.2864C171.334 22.2864 172.217 35.5485 171.334 40.8532ZM103.759 30.4078L105.127 23.1087C105.127 23.1087 94.5679 19.9015 85.9857 25.8451V55.0415H95.1V31.3193C98.7457 28.5833 103.759 30.4078 103.759 30.4078ZM65.768 28.4755C60.0273 28.4755 59.5859 34.6649 59.5859 34.6649H71.9508C71.9508 34.6649 71.5098 28.4755 65.768 28.4755ZM79.458 40.8532H59.5859C59.5859 40.8532 60.0273 47.4852 68.8596 47.4852C73.2748 47.4852 77.6915 46.1576 77.6915 46.1576L78.5753 53.2306C78.5753 53.2306 74.1586 55 67.9758 55C59.1435 55 51.1938 50.5788 51.1938 38.201C51.1938 28.4755 57.377 22.2864 66.2093 22.2864C79.458 22.2864 80.3406 35.5485 79.458 40.8532ZM126.002 43.8828C121.374 32.7634 119.061 22.2918 119.061 22.2918L109.807 22.2929C109.807 22.2929 114.435 40.1762 122.302 54.9945H129.703C137.57 40.1762 142.198 22.2955 142.198 22.2955H132.943C132.943 22.2955 130.63 32.7634 126.002 43.8828Z" fill="#03435F"/>
</g>
<defs>
<clipPath id="clip0_64_581">
<rect width="172" height="60" fill="white"/>
</clipPath>
</defs>
</svg>
