<svg xmlns="http://www.w3.org/2000/svg" xmlns:xlink="http://www.w3.org/1999/xlink" width="368" zoomAndPan="magnify" viewBox="0 0 276 59.249999" height="79" preserveAspectRatio="xMidYMid meet" version="1.0"><defs><g/><clipPath id="0910031397"><path d="M 3.699219 8.246094 L 45.671875 8.246094 L 45.671875 50.21875 L 3.699219 50.21875 Z M 3.699219 8.246094 " clip-rule="nonzero"/></clipPath><clipPath id="2224fa5a10"><path d="M 28.351562 9.9375 L 43.980469 25.566406 C 46.003906 27.589844 46.003906 30.871094 43.980469 32.898438 L 28.351562 48.527344 C 26.328125 50.550781 23.042969 50.550781 21.019531 48.527344 L 5.390625 32.898438 C 3.367188 30.871094 3.367188 27.589844 5.390625 25.566406 L 21.019531 9.9375 C 23.042969 7.914062 26.328125 7.914062 28.351562 9.9375 Z M 28.351562 9.9375 " clip-rule="nonzero"/></clipPath><clipPath id="007e865663"><path d="M 0.699219 0.246094 L 42.671875 0.246094 L 42.671875 42.21875 L 0.699219 42.21875 Z M 0.699219 0.246094 " clip-rule="nonzero"/></clipPath><clipPath id="dc236734c7"><path d="M 25.351562 1.9375 L 40.980469 17.566406 C 43.003906 19.589844 43.003906 22.871094 40.980469 24.898438 L 25.351562 40.527344 C 23.328125 42.550781 20.042969 42.550781 18.019531 40.527344 L 2.390625 24.898438 C 0.367188 22.871094 0.367188 19.589844 2.390625 17.566406 L 18.019531 1.9375 C 20.042969 -0.0859375 23.328125 -0.0859375 25.351562 1.9375 Z M 25.351562 1.9375 " clip-rule="nonzero"/></clipPath><clipPath id="22083e7451"><rect x="0" width="43" y="0" height="43"/></clipPath><clipPath id="064aa7e734"><path d="M 26.660156 8.246094 L 68.632812 8.246094 L 68.632812 50.21875 L 26.660156 50.21875 Z M 26.660156 8.246094 " clip-rule="nonzero"/></clipPath><clipPath id="7a41903a6b"><path d="M 51.3125 9.9375 L 66.941406 25.566406 C 68.964844 27.589844 68.964844 30.871094 66.941406 32.898438 L 51.3125 48.527344 C 49.285156 50.550781 46.003906 50.550781 43.980469 48.527344 L 28.351562 32.898438 C 26.328125 30.871094 26.328125 27.589844 28.351562 25.566406 L 43.980469 9.9375 C 46.003906 7.914062 49.285156 7.914062 51.3125 9.9375 Z M 51.3125 9.9375 " clip-rule="nonzero"/></clipPath><clipPath id="93e4700229"><path d="M 0.660156 0.246094 L 42.632812 0.246094 L 42.632812 42.21875 L 0.660156 42.21875 Z M 0.660156 0.246094 " clip-rule="nonzero"/></clipPath><clipPath id="8115b2835c"><path d="M 25.3125 1.9375 L 40.941406 17.566406 C 42.964844 19.589844 42.964844 22.871094 40.941406 24.898438 L 25.3125 40.527344 C 23.285156 42.550781 20.003906 42.550781 17.980469 40.527344 L 2.351562 24.898438 C 0.328125 22.871094 0.328125 19.589844 2.351562 17.566406 L 17.980469 1.9375 C 20.003906 -0.0859375 23.285156 -0.0859375 25.3125 1.9375 Z M 25.3125 1.9375 " clip-rule="nonzero"/></clipPath><clipPath id="aa333eaddf"><rect x="0" width="43" y="0" height="43"/></clipPath></defs><g clip-path="url(#0910031397)"><g clip-path="url(#2224fa5a10)"><g transform="matrix(1, 0, 0, 1, 3, 8)"><g clip-path="url(#22083e7451)"><g clip-path="url(#007e865663)"><g clip-path="url(#dc236734c7)"><rect x="-63.72" width="397.44" fill="#4f70ff" height="85.319999" y="-21.035" fill-opacity="1"/></g></g></g></g></g></g><g clip-path="url(#064aa7e734)"><g clip-path="url(#7a41903a6b)"><g transform="matrix(1, 0, 0, 1, 26, 8)"><g clip-path="url(#aa333eaddf)"><g clip-path="url(#93e4700229)"><g clip-path="url(#8115b2835c)"><rect x="-86.72" width="397.44" fill="#4f70ff" height="85.319999" y="-21.035" fill-opacity="1"/></g></g></g></g></g></g><g fill="#0a0c1b" fill-opacity="1"><g transform="translate(71.027458, 39.970471)"><g><path d="M 6.84375 0 L 0.640625 -22.984375 L 5.046875 -22.984375 L 8.03125 -10.71875 C 8.25 -9.832031 8.445312 -8.910156 8.625 -7.953125 C 8.8125 -7.003906 8.988281 -6.046875 9.15625 -5.078125 C 9.320312 -4.117188 9.488281 -3.171875 9.65625 -2.234375 L 8.96875 -2.234375 C 9.132812 -3.171875 9.304688 -4.117188 9.484375 -5.078125 C 9.671875 -6.046875 9.859375 -7.003906 10.046875 -7.953125 C 10.242188 -8.910156 10.453125 -9.832031 10.671875 -10.71875 L 13.796875 -22.984375 L 18.15625 -22.984375 L 21.265625 -10.71875 C 21.484375 -9.832031 21.6875 -8.910156 21.875 -7.953125 C 22.070312 -7.003906 22.257812 -6.046875 22.4375 -5.078125 C 22.625 -4.117188 22.804688 -3.171875 22.984375 -2.234375 L 22.265625 -2.234375 C 22.429688 -3.171875 22.597656 -4.117188 22.765625 -5.078125 C 22.941406 -6.046875 23.125 -7.003906 23.3125 -7.953125 C 23.507812 -8.910156 23.703125 -9.832031 23.890625 -10.71875 L 26.890625 -22.984375 L 31.3125 -22.984375 L 25.078125 0 L 20.390625 0 L 17.015625 -12.8125 C 16.710938 -13.957031 16.445312 -15.191406 16.21875 -16.515625 C 15.988281 -17.835938 15.738281 -19.242188 15.46875 -20.734375 L 16.453125 -20.734375 C 16.179688 -19.285156 15.9375 -17.90625 15.71875 -16.59375 C 15.507812 -15.289062 15.25 -14.03125 14.9375 -12.8125 L 11.546875 0 Z M 6.84375 0 "/></g></g></g><g fill="#0a0c1b" fill-opacity="1"><g transform="translate(101.331377, 39.970471)"><g><path d="M 6.015625 -9.90625 L 6.015625 0 L 2.03125 0 L 2.03125 -22.984375 L 5.984375 -22.984375 L 5.984375 -12.796875 L 5.46875 -12.796875 C 5.957031 -14.285156 6.671875 -15.40625 7.609375 -16.15625 C 8.554688 -16.90625 9.734375 -17.28125 11.140625 -17.28125 C 12.304688 -17.28125 13.332031 -17.023438 14.21875 -16.515625 C 15.101562 -16.015625 15.789062 -15.28125 16.28125 -14.3125 C 16.78125 -13.34375 17.03125 -12.164062 17.03125 -10.78125 L 17.03125 0 L 13.03125 0 L 13.03125 -10.171875 C 13.03125 -11.335938 12.734375 -12.242188 12.140625 -12.890625 C 11.554688 -13.546875 10.734375 -13.875 9.671875 -13.875 C 8.972656 -13.875 8.347656 -13.71875 7.796875 -13.40625 C 7.242188 -13.101562 6.804688 -12.660156 6.484375 -12.078125 C 6.171875 -11.492188 6.015625 -10.769531 6.015625 -9.90625 Z M 6.015625 -9.90625 "/></g></g></g><g fill="#0a0c1b" fill-opacity="1"><g transform="translate(118.754654, 39.970471)"><g><path d="M 9.46875 0.359375 C 7.8125 0.359375 6.367188 -0.00390625 5.140625 -0.734375 C 3.910156 -1.472656 2.957031 -2.503906 2.28125 -3.828125 C 1.613281 -5.148438 1.28125 -6.691406 1.28125 -8.453125 C 1.28125 -10.210938 1.613281 -11.753906 2.28125 -13.078125 C 2.957031 -14.410156 3.910156 -15.441406 5.140625 -16.171875 C 6.367188 -16.910156 7.8125 -17.28125 9.46875 -17.28125 C 11.132812 -17.28125 12.582031 -16.910156 13.8125 -16.171875 C 15.039062 -15.441406 15.988281 -14.410156 16.65625 -13.078125 C 17.332031 -11.753906 17.671875 -10.210938 17.671875 -8.453125 C 17.671875 -6.691406 17.332031 -5.148438 16.65625 -3.828125 C 15.988281 -2.503906 15.039062 -1.472656 13.8125 -0.734375 C 12.582031 -0.00390625 11.132812 0.359375 9.46875 0.359375 Z M 9.46875 -2.90625 C 10.382812 -2.90625 11.148438 -3.144531 11.765625 -3.625 C 12.390625 -4.113281 12.859375 -4.773438 13.171875 -5.609375 C 13.484375 -6.453125 13.640625 -7.398438 13.640625 -8.453125 C 13.640625 -9.523438 13.484375 -10.476562 13.171875 -11.3125 C 12.859375 -12.15625 12.390625 -12.816406 11.765625 -13.296875 C 11.148438 -13.773438 10.382812 -14.015625 9.46875 -14.015625 C 8.5625 -14.015625 7.800781 -13.773438 7.1875 -13.296875 C 6.570312 -12.816406 6.109375 -12.15625 5.796875 -11.3125 C 5.492188 -10.476562 5.34375 -9.523438 5.34375 -8.453125 C 5.34375 -7.398438 5.492188 -6.453125 5.796875 -5.609375 C 6.109375 -4.773438 6.570312 -4.113281 7.1875 -3.625 C 7.800781 -3.144531 8.5625 -2.90625 9.46875 -2.90625 Z M 9.46875 -2.90625 "/></g></g></g><g fill="#0a0c1b" fill-opacity="1"><g transform="translate(136.069949, 39.970471)"><g><path d="M 6.015625 -22.984375 L 6.015625 0 L 2.03125 0 L 2.03125 -22.984375 Z M 6.015625 -22.984375 "/></g></g></g><g fill="#0a0c1b" fill-opacity="1"><g transform="translate(142.479119, 39.970471)"><g><path d="M 9.5625 0.359375 C 7.851562 0.359375 6.378906 -0.00390625 5.140625 -0.734375 C 3.898438 -1.460938 2.945312 -2.484375 2.28125 -3.796875 C 1.613281 -5.117188 1.28125 -6.664062 1.28125 -8.4375 C 1.28125 -10.175781 1.609375 -11.710938 2.265625 -13.046875 C 2.929688 -14.378906 3.867188 -15.414062 5.078125 -16.15625 C 6.285156 -16.90625 7.695312 -17.28125 9.3125 -17.28125 C 10.394531 -17.28125 11.410156 -17.101562 12.359375 -16.75 C 13.316406 -16.394531 14.15625 -15.859375 14.875 -15.140625 C 15.601562 -14.421875 16.171875 -13.519531 16.578125 -12.4375 C 16.992188 -11.351562 17.203125 -10.082031 17.203125 -8.625 L 17.203125 -7.421875 L 3.09375 -7.421875 L 3.09375 -10.140625 L 15.203125 -10.140625 L 13.359375 -9.34375 C 13.359375 -10.3125 13.203125 -11.15625 12.890625 -11.875 C 12.585938 -12.59375 12.140625 -13.148438 11.546875 -13.546875 C 10.953125 -13.941406 10.21875 -14.140625 9.34375 -14.140625 C 8.476562 -14.140625 7.738281 -13.9375 7.125 -13.53125 C 6.507812 -13.132812 6.039062 -12.585938 5.71875 -11.890625 C 5.394531 -11.203125 5.234375 -10.425781 5.234375 -9.5625 L 5.234375 -7.734375 C 5.234375 -6.671875 5.410156 -5.769531 5.765625 -5.03125 C 6.128906 -4.289062 6.640625 -3.726562 7.296875 -3.34375 C 7.960938 -2.96875 8.738281 -2.78125 9.625 -2.78125 C 10.21875 -2.78125 10.753906 -2.863281 11.234375 -3.03125 C 11.722656 -3.207031 12.140625 -3.460938 12.484375 -3.796875 C 12.828125 -4.128906 13.085938 -4.539062 13.265625 -5.03125 L 16.9375 -4.4375 C 16.675781 -3.488281 16.207031 -2.648438 15.53125 -1.921875 C 14.863281 -1.203125 14.019531 -0.640625 13 -0.234375 C 11.988281 0.160156 10.84375 0.359375 9.5625 0.359375 Z M 9.5625 0.359375 "/></g></g></g><g fill="#0a0c1b" fill-opacity="1"><g transform="translate(159.254507, 39.970471)"><g><path d="M 8.53125 0.359375 C 7.21875 0.359375 6.046875 0.164062 5.015625 -0.21875 C 3.984375 -0.601562 3.144531 -1.164062 2.5 -1.90625 C 1.851562 -2.65625 1.441406 -3.566406 1.265625 -4.640625 L 5.046875 -5.203125 C 5.242188 -4.359375 5.640625 -3.726562 6.234375 -3.3125 C 6.828125 -2.894531 7.609375 -2.6875 8.578125 -2.6875 C 9.554688 -2.6875 10.328125 -2.878906 10.890625 -3.265625 C 11.460938 -3.660156 11.75 -4.144531 11.75 -4.71875 C 11.75 -5.21875 11.554688 -5.625 11.171875 -5.9375 C 10.785156 -6.257812 10.210938 -6.503906 9.453125 -6.671875 L 6.5625 -7.28125 C 4.945312 -7.632812 3.738281 -8.210938 2.9375 -9.015625 C 2.132812 -9.816406 1.734375 -10.84375 1.734375 -12.09375 C 1.734375 -13.144531 2.019531 -14.054688 2.59375 -14.828125 C 3.164062 -15.609375 3.96875 -16.210938 5 -16.640625 C 6.03125 -17.066406 7.226562 -17.28125 8.59375 -17.28125 C 9.894531 -17.28125 11.019531 -17.085938 11.96875 -16.703125 C 12.925781 -16.316406 13.695312 -15.773438 14.28125 -15.078125 C 14.863281 -14.378906 15.242188 -13.5625 15.421875 -12.625 L 11.828125 -12.078125 C 11.671875 -12.691406 11.332031 -13.210938 10.8125 -13.640625 C 10.289062 -14.078125 9.570312 -14.296875 8.65625 -14.296875 C 7.800781 -14.296875 7.09375 -14.109375 6.53125 -13.734375 C 5.976562 -13.359375 5.703125 -12.882812 5.703125 -12.3125 C 5.703125 -11.800781 5.890625 -11.382812 6.265625 -11.0625 C 6.648438 -10.75 7.257812 -10.503906 8.09375 -10.328125 L 11.03125 -9.703125 C 12.65625 -9.347656 13.859375 -8.789062 14.640625 -8.03125 C 15.429688 -7.269531 15.828125 -6.289062 15.828125 -5.09375 C 15.828125 -4 15.515625 -3.046875 14.890625 -2.234375 C 14.273438 -1.421875 13.414062 -0.785156 12.3125 -0.328125 C 11.21875 0.128906 9.957031 0.359375 8.53125 0.359375 Z M 8.53125 0.359375 "/></g></g></g><g fill="#0a0c1b" fill-opacity="1"><g transform="translate(174.656988, 39.970471)"><g><path d="M 9.5625 0.359375 C 7.851562 0.359375 6.378906 -0.00390625 5.140625 -0.734375 C 3.898438 -1.460938 2.945312 -2.484375 2.28125 -3.796875 C 1.613281 -5.117188 1.28125 -6.664062 1.28125 -8.4375 C 1.28125 -10.175781 1.609375 -11.710938 2.265625 -13.046875 C 2.929688 -14.378906 3.867188 -15.414062 5.078125 -16.15625 C 6.285156 -16.90625 7.695312 -17.28125 9.3125 -17.28125 C 10.394531 -17.28125 11.410156 -17.101562 12.359375 -16.75 C 13.316406 -16.394531 14.15625 -15.859375 14.875 -15.140625 C 15.601562 -14.421875 16.171875 -13.519531 16.578125 -12.4375 C 16.992188 -11.351562 17.203125 -10.082031 17.203125 -8.625 L 17.203125 -7.421875 L 3.09375 -7.421875 L 3.09375 -10.140625 L 15.203125 -10.140625 L 13.359375 -9.34375 C 13.359375 -10.3125 13.203125 -11.15625 12.890625 -11.875 C 12.585938 -12.59375 12.140625 -13.148438 11.546875 -13.546875 C 10.953125 -13.941406 10.21875 -14.140625 9.34375 -14.140625 C 8.476562 -14.140625 7.738281 -13.9375 7.125 -13.53125 C 6.507812 -13.132812 6.039062 -12.585938 5.71875 -11.890625 C 5.394531 -11.203125 5.234375 -10.425781 5.234375 -9.5625 L 5.234375 -7.734375 C 5.234375 -6.671875 5.410156 -5.769531 5.765625 -5.03125 C 6.128906 -4.289062 6.640625 -3.726562 7.296875 -3.34375 C 7.960938 -2.96875 8.738281 -2.78125 9.625 -2.78125 C 10.21875 -2.78125 10.753906 -2.863281 11.234375 -3.03125 C 11.722656 -3.207031 12.140625 -3.460938 12.484375 -3.796875 C 12.828125 -4.128906 13.085938 -4.539062 13.265625 -5.03125 L 16.9375 -4.4375 C 16.675781 -3.488281 16.207031 -2.648438 15.53125 -1.921875 C 14.863281 -1.203125 14.019531 -0.640625 13 -0.234375 C 11.988281 0.160156 10.84375 0.359375 9.5625 0.359375 Z M 9.5625 0.359375 "/></g></g></g><g fill="#0a0c1b" fill-opacity="1"><g transform="translate(191.432376, 39.970471)"><g><path d="M 8.53125 0.359375 C 7.21875 0.359375 6.046875 0.164062 5.015625 -0.21875 C 3.984375 -0.601562 3.144531 -1.164062 2.5 -1.90625 C 1.851562 -2.65625 1.441406 -3.566406 1.265625 -4.640625 L 5.046875 -5.203125 C 5.242188 -4.359375 5.640625 -3.726562 6.234375 -3.3125 C 6.828125 -2.894531 7.609375 -2.6875 8.578125 -2.6875 C 9.554688 -2.6875 10.328125 -2.878906 10.890625 -3.265625 C 11.460938 -3.660156 11.75 -4.144531 11.75 -4.71875 C 11.75 -5.21875 11.554688 -5.625 11.171875 -5.9375 C 10.785156 -6.257812 10.210938 -6.503906 9.453125 -6.671875 L 6.5625 -7.28125 C 4.945312 -7.632812 3.738281 -8.210938 2.9375 -9.015625 C 2.132812 -9.816406 1.734375 -10.84375 1.734375 -12.09375 C 1.734375 -13.144531 2.019531 -14.054688 2.59375 -14.828125 C 3.164062 -15.609375 3.96875 -16.210938 5 -16.640625 C 6.03125 -17.066406 7.226562 -17.28125 8.59375 -17.28125 C 9.894531 -17.28125 11.019531 -17.085938 11.96875 -16.703125 C 12.925781 -16.316406 13.695312 -15.773438 14.28125 -15.078125 C 14.863281 -14.378906 15.242188 -13.5625 15.421875 -12.625 L 11.828125 -12.078125 C 11.671875 -12.691406 11.332031 -13.210938 10.8125 -13.640625 C 10.289062 -14.078125 9.570312 -14.296875 8.65625 -14.296875 C 7.800781 -14.296875 7.09375 -14.109375 6.53125 -13.734375 C 5.976562 -13.359375 5.703125 -12.882812 5.703125 -12.3125 C 5.703125 -11.800781 5.890625 -11.382812 6.265625 -11.0625 C 6.648438 -10.75 7.257812 -10.503906 8.09375 -10.328125 L 11.03125 -9.703125 C 12.65625 -9.347656 13.859375 -8.789062 14.640625 -8.03125 C 15.429688 -7.269531 15.828125 -6.289062 15.828125 -5.09375 C 15.828125 -4 15.515625 -3.046875 14.890625 -2.234375 C 14.273438 -1.421875 13.414062 -0.785156 12.3125 -0.328125 C 11.21875 0.128906 9.957031 0.359375 8.53125 0.359375 Z M 8.53125 0.359375 "/></g></g></g><g fill="#0a0c1b" fill-opacity="1"><g transform="translate(206.834857, 39.970471)"><g><path d="M 8.53125 0.359375 C 7.21875 0.359375 6.046875 0.164062 5.015625 -0.21875 C 3.984375 -0.601562 3.144531 -1.164062 2.5 -1.90625 C 1.851562 -2.65625 1.441406 -3.566406 1.265625 -4.640625 L 5.046875 -5.203125 C 5.242188 -4.359375 5.640625 -3.726562 6.234375 -3.3125 C 6.828125 -2.894531 7.609375 -2.6875 8.578125 -2.6875 C 9.554688 -2.6875 10.328125 -2.878906 10.890625 -3.265625 C 11.460938 -3.660156 11.75 -4.144531 11.75 -4.71875 C 11.75 -5.21875 11.554688 -5.625 11.171875 -5.9375 C 10.785156 -6.257812 10.210938 -6.503906 9.453125 -6.671875 L 6.5625 -7.28125 C 4.945312 -7.632812 3.738281 -8.210938 2.9375 -9.015625 C 2.132812 -9.816406 1.734375 -10.84375 1.734375 -12.09375 C 1.734375 -13.144531 2.019531 -14.054688 2.59375 -14.828125 C 3.164062 -15.609375 3.96875 -16.210938 5 -16.640625 C 6.03125 -17.066406 7.226562 -17.28125 8.59375 -17.28125 C 9.894531 -17.28125 11.019531 -17.085938 11.96875 -16.703125 C 12.925781 -16.316406 13.695312 -15.773438 14.28125 -15.078125 C 14.863281 -14.378906 15.242188 -13.5625 15.421875 -12.625 L 11.828125 -12.078125 C 11.671875 -12.691406 11.332031 -13.210938 10.8125 -13.640625 C 10.289062 -14.078125 9.570312 -14.296875 8.65625 -14.296875 C 7.800781 -14.296875 7.09375 -14.109375 6.53125 -13.734375 C 5.976562 -13.359375 5.703125 -12.882812 5.703125 -12.3125 C 5.703125 -11.800781 5.890625 -11.382812 6.265625 -11.0625 C 6.648438 -10.75 7.257812 -10.503906 8.09375 -10.328125 L 11.03125 -9.703125 C 12.65625 -9.347656 13.859375 -8.789062 14.640625 -8.03125 C 15.429688 -7.269531 15.828125 -6.289062 15.828125 -5.09375 C 15.828125 -4 15.515625 -3.046875 14.890625 -2.234375 C 14.273438 -1.421875 13.414062 -0.785156 12.3125 -0.328125 C 11.21875 0.128906 9.957031 0.359375 8.53125 0.359375 Z M 8.53125 0.359375 "/></g></g></g><g fill="#0a0c1b" fill-opacity="1"><g transform="translate(222.237338, 39.970471)"><g><path d="M 2.03125 0 L 2.03125 -17.03125 L 6.015625 -17.03125 L 6.015625 0 Z M 4.03125 -19.46875 C 3.375 -19.46875 2.816406 -19.679688 2.359375 -20.109375 C 1.910156 -20.546875 1.6875 -21.066406 1.6875 -21.671875 C 1.6875 -22.285156 1.910156 -22.800781 2.359375 -23.21875 C 2.816406 -23.644531 3.375 -23.859375 4.03125 -23.859375 C 4.675781 -23.859375 5.226562 -23.644531 5.6875 -23.21875 C 6.144531 -22.800781 6.375 -22.285156 6.375 -21.671875 C 6.375 -21.066406 6.144531 -20.546875 5.6875 -20.109375 C 5.226562 -19.679688 4.675781 -19.46875 4.03125 -19.46875 Z M 4.03125 -19.46875 "/></g></g></g><g fill="#0a0c1b" fill-opacity="1"><g transform="translate(228.646508, 39.970471)"><g><path d="M 9.46875 0.359375 C 7.8125 0.359375 6.367188 -0.00390625 5.140625 -0.734375 C 3.910156 -1.472656 2.957031 -2.503906 2.28125 -3.828125 C 1.613281 -5.148438 1.28125 -6.691406 1.28125 -8.453125 C 1.28125 -10.210938 1.613281 -11.753906 2.28125 -13.078125 C 2.957031 -14.410156 3.910156 -15.441406 5.140625 -16.171875 C 6.367188 -16.910156 7.8125 -17.28125 9.46875 -17.28125 C 11.132812 -17.28125 12.582031 -16.910156 13.8125 -16.171875 C 15.039062 -15.441406 15.988281 -14.410156 16.65625 -13.078125 C 17.332031 -11.753906 17.671875 -10.210938 17.671875 -8.453125 C 17.671875 -6.691406 17.332031 -5.148438 16.65625 -3.828125 C 15.988281 -2.503906 15.039062 -1.472656 13.8125 -0.734375 C 12.582031 -0.00390625 11.132812 0.359375 9.46875 0.359375 Z M 9.46875 -2.90625 C 10.382812 -2.90625 11.148438 -3.144531 11.765625 -3.625 C 12.390625 -4.113281 12.859375 -4.773438 13.171875 -5.609375 C 13.484375 -6.453125 13.640625 -7.398438 13.640625 -8.453125 C 13.640625 -9.523438 13.484375 -10.476562 13.171875 -11.3125 C 12.859375 -12.15625 12.390625 -12.816406 11.765625 -13.296875 C 11.148438 -13.773438 10.382812 -14.015625 9.46875 -14.015625 C 8.5625 -14.015625 7.800781 -13.773438 7.1875 -13.296875 C 6.570312 -12.816406 6.109375 -12.15625 5.796875 -11.3125 C 5.492188 -10.476562 5.34375 -9.523438 5.34375 -8.453125 C 5.34375 -7.398438 5.492188 -6.453125 5.796875 -5.609375 C 6.109375 -4.773438 6.570312 -4.113281 7.1875 -3.625 C 7.800781 -3.144531 8.5625 -2.90625 9.46875 -2.90625 Z M 9.46875 -2.90625 "/></g></g></g><g fill="#0a0c1b" fill-opacity="1"><g transform="translate(245.961803, 39.970471)"><g><path d="M 6.015625 -9.90625 L 6.015625 0 L 2.03125 0 L 2.03125 -17.03125 L 5.84375 -17.03125 L 5.890625 -12.796875 L 5.46875 -12.796875 C 5.957031 -14.285156 6.671875 -15.40625 7.609375 -16.15625 C 8.554688 -16.90625 9.734375 -17.28125 11.140625 -17.28125 C 12.304688 -17.28125 13.332031 -17.023438 14.21875 -16.515625 C 15.101562 -16.015625 15.789062 -15.28125 16.28125 -14.3125 C 16.769531 -13.34375 17.015625 -12.164062 17.015625 -10.78125 L 17.015625 0 L 13.03125 0 L 13.03125 -10.171875 C 13.03125 -11.335938 12.734375 -12.242188 12.140625 -12.890625 C 11.554688 -13.546875 10.734375 -13.875 9.671875 -13.875 C 8.972656 -13.875 8.347656 -13.71875 7.796875 -13.40625 C 7.242188 -13.101562 6.804688 -12.660156 6.484375 -12.078125 C 6.171875 -11.492188 6.015625 -10.769531 6.015625 -9.90625 Z M 6.015625 -9.90625 "/></g></g></g></svg>