<svg xmlns="http://www.w3.org/2000/svg" xmlns:xlink="http://www.w3.org/1999/xlink" width="381" zoomAndPan="magnify" viewBox="0 0 285.75 128.249994" height="171" preserveAspectRatio="xMidYMid meet" version="1.0"><defs><g/><clipPath id="4fc737dfd6"><path d="M 0.707031 21.292969 L 95.402344 21.292969 L 95.402344 115.988281 L 0.707031 115.988281 Z M 0.707031 21.292969 " clip-rule="nonzero"/></clipPath><clipPath id="3310325e92"><path d="M 0.554688 27 L 66 27 L 66 79 L 0.554688 79 Z M 0.554688 27 " clip-rule="nonzero"/></clipPath><clipPath id="c6ed1b3f23"><rect x="0" width="67" y="0" height="97"/></clipPath></defs><g clip-path="url(#4fc737dfd6)"><path fill="#372772" d="M 48.804688 116.140625 L 47.4375 116.140625 C 21.632812 116.140625 0.707031 95.214844 0.707031 69.390625 L 0.707031 68.023438 C 0.707031 42.222656 21.632812 21.292969 47.457031 21.292969 L 95.324219 21.292969 C 95.457031 21.292969 95.554688 21.410156 95.554688 21.523438 L 95.554688 69.390625 C 95.554688 95.214844 74.625 116.140625 48.804688 116.140625 Z M 48.804688 116.140625 " fill-opacity="1" fill-rule="nonzero"/></g><g transform="matrix(1, 0, 0, 1, 19, 15)"><g clip-path="url(#c6ed1b3f23)"><g clip-path="url(#3310325e92)"><g fill="#ffffff" fill-opacity="1"><g transform="translate(1.26338, 78.131301)"><g><path d="M 64.390625 -50.25 L 64.390625 -48.84375 C 63.484375 -48.644531 62.484375 -48.109375 61.390625 -47.234375 C 60.304688 -46.359375 59.4375 -44.832031 58.78125 -42.65625 L 45.359375 0.359375 C 45.265625 0.359375 45.171875 0.359375 45.078125 0.359375 C 44.984375 0.359375 44.890625 0.359375 44.796875 0.359375 C 44.703125 0.359375 44.601562 0.359375 44.5 0.359375 C 44.40625 0.359375 44.3125 0.359375 44.21875 0.359375 L 29.171875 -44.296875 C 28.554688 -46.140625 27.867188 -47.34375 27.109375 -47.90625 C 26.359375 -48.476562 25.648438 -48.789062 24.984375 -48.84375 L 24.984375 -50.25 C 25.835938 -50.207031 26.898438 -50.160156 28.171875 -50.109375 C 29.453125 -50.066406 30.6875 -50.046875 31.875 -50.046875 C 33.71875 -50.046875 35.441406 -50.066406 37.046875 -50.109375 C 38.660156 -50.160156 39.960938 -50.207031 40.953125 -50.25 L 40.953125 -48.84375 C 39.535156 -48.789062 38.410156 -48.644531 37.578125 -48.40625 C 36.753906 -48.175781 36.28125 -47.65625 36.15625 -46.84375 C 36.039062 -46.039062 36.269531 -44.71875 36.84375 -42.875 L 47.421875 -10.15625 L 46.421875 -9.296875 L 55.796875 -38.75 C 56.648438 -41.351562 57.039062 -43.375 56.96875 -44.8125 C 56.894531 -46.257812 56.359375 -47.28125 55.359375 -47.875 C 54.367188 -48.46875 52.878906 -48.789062 50.890625 -48.84375 L 50.890625 -50.25 C 52.265625 -50.207031 53.660156 -50.160156 55.078125 -50.109375 C 56.503906 -50.066406 57.832031 -50.046875 59.0625 -50.046875 C 60.289062 -50.046875 61.304688 -50.066406 62.109375 -50.109375 C 62.910156 -50.160156 63.671875 -50.207031 64.390625 -50.25 Z M 14.765625 -50.25 L 14.765625 -48.84375 C 13.535156 -48.738281 12.644531 -48.5 12.09375 -48.125 C 11.550781 -47.75 11.289062 -47.144531 11.3125 -46.3125 C 11.34375 -45.488281 11.59375 -44.34375 12.0625 -42.875 L 23.0625 -9.296875 L 21.296875 -7.53125 L 31.234375 -39.25 L 32.296875 -37.546875 L 20.578125 0.359375 C 20.484375 0.359375 20.390625 0.359375 20.296875 0.359375 C 20.203125 0.359375 20.109375 0.359375 20.015625 0.359375 C 19.921875 0.359375 19.828125 0.359375 19.734375 0.359375 C 19.640625 0.359375 19.546875 0.359375 19.453125 0.359375 L 4.40625 -44.296875 C 3.789062 -46.140625 3.007812 -47.34375 2.0625 -47.90625 C 1.113281 -48.476562 0.257812 -48.789062 -0.5 -48.84375 L -0.5 -50.25 C 0.445312 -50.207031 1.617188 -50.160156 3.015625 -50.109375 C 4.410156 -50.066406 5.769531 -50.046875 7.09375 -50.046875 C 8.65625 -50.046875 10.109375 -50.066406 11.453125 -50.109375 C 12.804688 -50.160156 13.910156 -50.207031 14.765625 -50.25 Z M 14.765625 -50.25 "/></g></g></g></g></g></g><g fill="#372772" fill-opacity="1"><g transform="translate(98.053471, 80.079282)"><g><path d="M 6.65625 -28.015625 L 6.65625 -14.640625 C 7.269531 -16.253906 8.128906 -17.367188 9.234375 -17.984375 C 10.347656 -18.609375 11.515625 -18.921875 12.734375 -18.921875 C 13.640625 -18.921875 14.394531 -18.800781 15 -18.5625 C 15.613281 -18.332031 16.125 -18 16.53125 -17.5625 C 16.976562 -17.09375 17.296875 -16.5 17.484375 -15.78125 C 17.679688 -15.0625 17.78125 -14.09375 17.78125 -12.875 L 17.78125 -3.328125 C 17.78125 -2.328125 17.988281 -1.644531 18.40625 -1.28125 C 18.820312 -0.925781 19.519531 -0.75 20.5 -0.75 L 20.5 0 C 20.09375 -0.0195312 19.472656 -0.046875 18.640625 -0.078125 C 17.804688 -0.117188 16.992188 -0.140625 16.203125 -0.140625 C 15.421875 -0.140625 14.65625 -0.117188 13.90625 -0.078125 C 13.15625 -0.046875 12.585938 -0.0195312 12.203125 0 L 12.203125 -0.75 C 13.054688 -0.75 13.660156 -0.925781 14.015625 -1.28125 C 14.378906 -1.644531 14.5625 -2.328125 14.5625 -3.328125 L 14.5625 -13.671875 C 14.5625 -14.410156 14.5 -15.085938 14.375 -15.703125 C 14.257812 -16.328125 13.992188 -16.828125 13.578125 -17.203125 C 13.160156 -17.585938 12.523438 -17.78125 11.671875 -17.78125 C 10.691406 -17.78125 9.820312 -17.503906 9.0625 -16.953125 C 8.3125 -16.410156 7.722656 -15.648438 7.296875 -14.671875 C 6.867188 -13.691406 6.65625 -12.570312 6.65625 -11.3125 L 6.65625 -3.328125 C 6.65625 -2.328125 6.832031 -1.644531 7.1875 -1.28125 C 7.550781 -0.925781 8.160156 -0.75 9.015625 -0.75 L 9.015625 0 C 8.628906 -0.0195312 8.0625 -0.046875 7.3125 -0.078125 C 6.5625 -0.117188 5.796875 -0.140625 5.015625 -0.140625 C 4.222656 -0.140625 3.410156 -0.117188 2.578125 -0.078125 C 1.742188 -0.046875 1.125 -0.0195312 0.71875 0 L 0.71875 -0.75 C 1.695312 -0.75 2.394531 -0.925781 2.8125 -1.28125 C 3.226562 -1.644531 3.4375 -2.328125 3.4375 -3.328125 L 3.4375 -23.71875 C 3.4375 -24.789062 3.242188 -25.582031 2.859375 -26.09375 C 2.484375 -26.613281 1.769531 -26.875 0.71875 -26.875 L 0.71875 -27.625 C 1.476562 -27.550781 2.21875 -27.515625 2.9375 -27.515625 C 3.625 -27.515625 4.285156 -27.554688 4.921875 -27.640625 C 5.554688 -27.722656 6.132812 -27.847656 6.65625 -28.015625 Z M 6.65625 -28.015625 "/></g></g></g><g fill="#372772" fill-opacity="1"><g transform="translate(118.089425, 80.079282)"><g><path d="M 9.796875 -18.921875 C 11.328125 -18.921875 12.703125 -18.585938 13.921875 -17.921875 C 15.140625 -17.253906 16.109375 -16.203125 16.828125 -14.765625 C 17.554688 -13.335938 17.921875 -11.484375 17.921875 -9.203125 C 17.921875 -6.910156 17.554688 -5.050781 16.828125 -3.625 C 16.109375 -2.207031 15.140625 -1.164062 13.921875 -0.5 C 12.703125 0.164062 11.328125 0.5 9.796875 0.5 C 8.296875 0.5 6.929688 0.164062 5.703125 -0.5 C 4.472656 -1.164062 3.492188 -2.207031 2.765625 -3.625 C 2.046875 -5.050781 1.6875 -6.910156 1.6875 -9.203125 C 1.6875 -11.484375 2.046875 -13.335938 2.765625 -14.765625 C 3.492188 -16.203125 4.472656 -17.253906 5.703125 -17.921875 C 6.929688 -18.585938 8.296875 -18.921875 9.796875 -18.921875 Z M 9.796875 -18.21875 C 8.441406 -18.21875 7.328125 -17.507812 6.453125 -16.09375 C 5.585938 -14.6875 5.15625 -12.390625 5.15625 -9.203125 C 5.15625 -6.003906 5.585938 -3.707031 6.453125 -2.3125 C 7.328125 -0.914062 8.441406 -0.21875 9.796875 -0.21875 C 11.160156 -0.21875 12.273438 -0.914062 13.140625 -2.3125 C 14.015625 -3.707031 14.453125 -6.003906 14.453125 -9.203125 C 14.453125 -12.390625 14.015625 -14.6875 13.140625 -16.09375 C 12.273438 -17.507812 11.160156 -18.21875 9.796875 -18.21875 Z M 9.796875 -18.21875 "/></g></g></g><g fill="#372772" fill-opacity="1"><g transform="translate(136.336385, 80.079282)"><g><path d="M 6.734375 -28.046875 L 6.734375 -3.328125 C 6.734375 -2.328125 6.941406 -1.644531 7.359375 -1.28125 C 7.773438 -0.925781 8.472656 -0.75 9.453125 -0.75 L 9.453125 0 C 9.046875 -0.0195312 8.429688 -0.046875 7.609375 -0.078125 C 6.785156 -0.117188 5.953125 -0.140625 5.109375 -0.140625 C 4.304688 -0.140625 3.484375 -0.117188 2.640625 -0.078125 C 1.804688 -0.046875 1.1875 -0.0195312 0.78125 0 L 0.78125 -0.75 C 1.757812 -0.75 2.457031 -0.925781 2.875 -1.28125 C 3.289062 -1.644531 3.5 -2.328125 3.5 -3.328125 L 3.5 -23.765625 C 3.5 -24.835938 3.304688 -25.628906 2.921875 -26.140625 C 2.546875 -26.648438 1.832031 -26.90625 0.78125 -26.90625 L 0.78125 -27.65625 C 1.550781 -27.582031 2.289062 -27.546875 3 -27.546875 C 3.695312 -27.546875 4.359375 -27.585938 4.984375 -27.671875 C 5.617188 -27.753906 6.203125 -27.878906 6.734375 -28.046875 Z M 6.734375 -28.046875 "/></g></g></g><g fill="#372772" fill-opacity="1"><g transform="translate(145.20924, 80.079282)"><g><path d="M 9.734375 -18.921875 C 11.828125 -18.921875 13.460938 -18.28125 14.640625 -17 C 15.828125 -15.726562 16.421875 -13.75 16.421875 -11.0625 L 3.796875 -11.0625 L 3.75 -11.734375 L 12.984375 -11.734375 C 13.035156 -12.898438 12.941406 -13.976562 12.703125 -14.96875 C 12.460938 -15.957031 12.085938 -16.75 11.578125 -17.34375 C 11.066406 -17.945312 10.40625 -18.25 9.59375 -18.25 C 8.488281 -18.25 7.515625 -17.695312 6.671875 -16.59375 C 5.828125 -15.5 5.320312 -13.757812 5.15625 -11.375 L 5.265625 -11.234375 C 5.210938 -10.878906 5.171875 -10.484375 5.140625 -10.046875 C 5.117188 -9.617188 5.109375 -9.191406 5.109375 -8.765625 C 5.109375 -7.140625 5.367188 -5.742188 5.890625 -4.578125 C 6.421875 -3.410156 7.109375 -2.519531 7.953125 -1.90625 C 8.804688 -1.300781 9.6875 -1 10.59375 -1 C 11.3125 -1 11.988281 -1.113281 12.625 -1.34375 C 13.269531 -1.570312 13.867188 -1.945312 14.421875 -2.46875 C 14.972656 -2.988281 15.445312 -3.691406 15.84375 -4.578125 L 16.5625 -4.296875 C 16.300781 -3.503906 15.875 -2.738281 15.28125 -2 C 14.6875 -1.257812 13.9375 -0.65625 13.03125 -0.1875 C 12.125 0.269531 11.070312 0.5 9.875 0.5 C 8.15625 0.5 6.679688 0.109375 5.453125 -0.671875 C 4.222656 -1.460938 3.28125 -2.554688 2.625 -3.953125 C 1.96875 -5.347656 1.640625 -6.953125 1.640625 -8.765625 C 1.640625 -10.867188 1.972656 -12.675781 2.640625 -14.1875 C 3.316406 -15.695312 4.257812 -16.863281 5.46875 -17.6875 C 6.6875 -18.507812 8.109375 -18.921875 9.734375 -18.921875 Z M 9.734375 -18.921875 "/></g></g></g><g fill="#372772" fill-opacity="1"><g transform="translate(162.311321, 80.079282)"><g><path d="M 7.4375 -18.921875 C 8.394531 -18.921875 9.207031 -18.765625 9.875 -18.453125 C 10.539062 -18.148438 11.03125 -17.867188 11.34375 -17.609375 C 12.125 -16.960938 12.601562 -17.390625 12.78125 -18.890625 L 13.59375 -18.890625 C 13.550781 -18.222656 13.515625 -17.429688 13.484375 -16.515625 C 13.460938 -15.597656 13.453125 -14.363281 13.453125 -12.8125 L 12.625 -12.8125 C 12.488281 -13.695312 12.242188 -14.554688 11.890625 -15.390625 C 11.546875 -16.222656 11.039062 -16.90625 10.375 -17.4375 C 9.707031 -17.976562 8.835938 -18.25 7.765625 -18.25 C 6.929688 -18.25 6.234375 -18.015625 5.671875 -17.546875 C 5.109375 -17.085938 4.828125 -16.40625 4.828125 -15.5 C 4.828125 -14.78125 5.039062 -14.160156 5.46875 -13.640625 C 5.90625 -13.128906 6.46875 -12.65625 7.15625 -12.21875 C 7.84375 -11.78125 8.59375 -11.296875 9.40625 -10.765625 C 10.3125 -10.191406 11.132812 -9.609375 11.875 -9.015625 C 12.613281 -8.421875 13.203125 -7.765625 13.640625 -7.046875 C 14.085938 -6.328125 14.3125 -5.484375 14.3125 -4.515625 C 14.3125 -3.410156 14.023438 -2.488281 13.453125 -1.75 C 12.878906 -1.007812 12.132812 -0.445312 11.21875 -0.0625 C 10.300781 0.3125 9.289062 0.5 8.1875 0.5 C 7.664062 0.5 7.171875 0.457031 6.703125 0.375 C 6.242188 0.289062 5.796875 0.164062 5.359375 0 C 5.128906 -0.113281 4.890625 -0.253906 4.640625 -0.421875 C 4.390625 -0.597656 4.144531 -0.78125 3.90625 -0.96875 C 3.664062 -1.15625 3.445312 -1.144531 3.25 -0.9375 C 3.0625 -0.738281 2.921875 -0.34375 2.828125 0.25 L 2 0.25 C 2.050781 -0.507812 2.085938 -1.4375 2.109375 -2.53125 C 2.128906 -3.632812 2.140625 -5.09375 2.140625 -6.90625 L 2.96875 -6.90625 C 3.132812 -5.570312 3.375 -4.398438 3.6875 -3.390625 C 4 -2.390625 4.488281 -1.609375 5.15625 -1.046875 C 5.820312 -0.492188 6.75 -0.21875 7.9375 -0.21875 C 8.414062 -0.21875 8.898438 -0.320312 9.390625 -0.53125 C 9.878906 -0.75 10.289062 -1.109375 10.625 -1.609375 C 10.957031 -2.109375 11.125 -2.773438 11.125 -3.609375 C 11.125 -4.660156 10.742188 -5.519531 9.984375 -6.1875 C 9.222656 -6.851562 8.253906 -7.554688 7.078125 -8.296875 C 6.222656 -8.847656 5.421875 -9.394531 4.671875 -9.9375 C 3.921875 -10.488281 3.3125 -11.109375 2.84375 -11.796875 C 2.375 -12.492188 2.140625 -13.332031 2.140625 -14.3125 C 2.140625 -15.382812 2.382812 -16.257812 2.875 -16.9375 C 3.363281 -17.625 4.015625 -18.125 4.828125 -18.4375 C 5.640625 -18.757812 6.507812 -18.921875 7.4375 -18.921875 Z M 7.4375 -18.921875 "/></g></g></g><g fill="#372772" fill-opacity="1"><g transform="translate(177.302434, 80.079282)"><g><path d="M 9.734375 -18.921875 C 11.828125 -18.921875 13.460938 -18.28125 14.640625 -17 C 15.828125 -15.726562 16.421875 -13.75 16.421875 -11.0625 L 3.796875 -11.0625 L 3.75 -11.734375 L 12.984375 -11.734375 C 13.035156 -12.898438 12.941406 -13.976562 12.703125 -14.96875 C 12.460938 -15.957031 12.085938 -16.75 11.578125 -17.34375 C 11.066406 -17.945312 10.40625 -18.25 9.59375 -18.25 C 8.488281 -18.25 7.515625 -17.695312 6.671875 -16.59375 C 5.828125 -15.5 5.320312 -13.757812 5.15625 -11.375 L 5.265625 -11.234375 C 5.210938 -10.878906 5.171875 -10.484375 5.140625 -10.046875 C 5.117188 -9.617188 5.109375 -9.191406 5.109375 -8.765625 C 5.109375 -7.140625 5.367188 -5.742188 5.890625 -4.578125 C 6.421875 -3.410156 7.109375 -2.519531 7.953125 -1.90625 C 8.804688 -1.300781 9.6875 -1 10.59375 -1 C 11.3125 -1 11.988281 -1.113281 12.625 -1.34375 C 13.269531 -1.570312 13.867188 -1.945312 14.421875 -2.46875 C 14.972656 -2.988281 15.445312 -3.691406 15.84375 -4.578125 L 16.5625 -4.296875 C 16.300781 -3.503906 15.875 -2.738281 15.28125 -2 C 14.6875 -1.257812 13.9375 -0.65625 13.03125 -0.1875 C 12.125 0.269531 11.070312 0.5 9.875 0.5 C 8.15625 0.5 6.679688 0.109375 5.453125 -0.671875 C 4.222656 -1.460938 3.28125 -2.554688 2.625 -3.953125 C 1.96875 -5.347656 1.640625 -6.953125 1.640625 -8.765625 C 1.640625 -10.867188 1.972656 -12.675781 2.640625 -14.1875 C 3.316406 -15.695312 4.257812 -16.863281 5.46875 -17.6875 C 6.6875 -18.507812 8.109375 -18.921875 9.734375 -18.921875 Z M 9.734375 -18.921875 "/></g></g></g><g fill="#372772" fill-opacity="1"><g transform="translate(194.404516, 80.079282)"><g><path d="M 7.4375 -18.921875 C 8.394531 -18.921875 9.207031 -18.765625 9.875 -18.453125 C 10.539062 -18.148438 11.03125 -17.867188 11.34375 -17.609375 C 12.125 -16.960938 12.601562 -17.390625 12.78125 -18.890625 L 13.59375 -18.890625 C 13.550781 -18.222656 13.515625 -17.429688 13.484375 -16.515625 C 13.460938 -15.597656 13.453125 -14.363281 13.453125 -12.8125 L 12.625 -12.8125 C 12.488281 -13.695312 12.242188 -14.554688 11.890625 -15.390625 C 11.546875 -16.222656 11.039062 -16.90625 10.375 -17.4375 C 9.707031 -17.976562 8.835938 -18.25 7.765625 -18.25 C 6.929688 -18.25 6.234375 -18.015625 5.671875 -17.546875 C 5.109375 -17.085938 4.828125 -16.40625 4.828125 -15.5 C 4.828125 -14.78125 5.039062 -14.160156 5.46875 -13.640625 C 5.90625 -13.128906 6.46875 -12.65625 7.15625 -12.21875 C 7.84375 -11.78125 8.59375 -11.296875 9.40625 -10.765625 C 10.3125 -10.191406 11.132812 -9.609375 11.875 -9.015625 C 12.613281 -8.421875 13.203125 -7.765625 13.640625 -7.046875 C 14.085938 -6.328125 14.3125 -5.484375 14.3125 -4.515625 C 14.3125 -3.410156 14.023438 -2.488281 13.453125 -1.75 C 12.878906 -1.007812 12.132812 -0.445312 11.21875 -0.0625 C 10.300781 0.3125 9.289062 0.5 8.1875 0.5 C 7.664062 0.5 7.171875 0.457031 6.703125 0.375 C 6.242188 0.289062 5.796875 0.164062 5.359375 0 C 5.128906 -0.113281 4.890625 -0.253906 4.640625 -0.421875 C 4.390625 -0.597656 4.144531 -0.78125 3.90625 -0.96875 C 3.664062 -1.15625 3.445312 -1.144531 3.25 -0.9375 C 3.0625 -0.738281 2.921875 -0.34375 2.828125 0.25 L 2 0.25 C 2.050781 -0.507812 2.085938 -1.4375 2.109375 -2.53125 C 2.128906 -3.632812 2.140625 -5.09375 2.140625 -6.90625 L 2.96875 -6.90625 C 3.132812 -5.570312 3.375 -4.398438 3.6875 -3.390625 C 4 -2.390625 4.488281 -1.609375 5.15625 -1.046875 C 5.820312 -0.492188 6.75 -0.21875 7.9375 -0.21875 C 8.414062 -0.21875 8.898438 -0.320312 9.390625 -0.53125 C 9.878906 -0.75 10.289062 -1.109375 10.625 -1.609375 C 10.957031 -2.109375 11.125 -2.773438 11.125 -3.609375 C 11.125 -4.660156 10.742188 -5.519531 9.984375 -6.1875 C 9.222656 -6.851562 8.253906 -7.554688 7.078125 -8.296875 C 6.222656 -8.847656 5.421875 -9.394531 4.671875 -9.9375 C 3.921875 -10.488281 3.3125 -11.109375 2.84375 -11.796875 C 2.375 -12.492188 2.140625 -13.332031 2.140625 -14.3125 C 2.140625 -15.382812 2.382812 -16.257812 2.875 -16.9375 C 3.363281 -17.625 4.015625 -18.125 4.828125 -18.4375 C 5.640625 -18.757812 6.507812 -18.921875 7.4375 -18.921875 Z M 7.4375 -18.921875 "/></g></g></g><g fill="#372772" fill-opacity="1"><g transform="translate(209.395629, 80.079282)"><g><path d="M 7.4375 -18.921875 C 8.394531 -18.921875 9.207031 -18.765625 9.875 -18.453125 C 10.539062 -18.148438 11.03125 -17.867188 11.34375 -17.609375 C 12.125 -16.960938 12.601562 -17.390625 12.78125 -18.890625 L 13.59375 -18.890625 C 13.550781 -18.222656 13.515625 -17.429688 13.484375 -16.515625 C 13.460938 -15.597656 13.453125 -14.363281 13.453125 -12.8125 L 12.625 -12.8125 C 12.488281 -13.695312 12.242188 -14.554688 11.890625 -15.390625 C 11.546875 -16.222656 11.039062 -16.90625 10.375 -17.4375 C 9.707031 -17.976562 8.835938 -18.25 7.765625 -18.25 C 6.929688 -18.25 6.234375 -18.015625 5.671875 -17.546875 C 5.109375 -17.085938 4.828125 -16.40625 4.828125 -15.5 C 4.828125 -14.78125 5.039062 -14.160156 5.46875 -13.640625 C 5.90625 -13.128906 6.46875 -12.65625 7.15625 -12.21875 C 7.84375 -11.78125 8.59375 -11.296875 9.40625 -10.765625 C 10.3125 -10.191406 11.132812 -9.609375 11.875 -9.015625 C 12.613281 -8.421875 13.203125 -7.765625 13.640625 -7.046875 C 14.085938 -6.328125 14.3125 -5.484375 14.3125 -4.515625 C 14.3125 -3.410156 14.023438 -2.488281 13.453125 -1.75 C 12.878906 -1.007812 12.132812 -0.445312 11.21875 -0.0625 C 10.300781 0.3125 9.289062 0.5 8.1875 0.5 C 7.664062 0.5 7.171875 0.457031 6.703125 0.375 C 6.242188 0.289062 5.796875 0.164062 5.359375 0 C 5.128906 -0.113281 4.890625 -0.253906 4.640625 -0.421875 C 4.390625 -0.597656 4.144531 -0.78125 3.90625 -0.96875 C 3.664062 -1.15625 3.445312 -1.144531 3.25 -0.9375 C 3.0625 -0.738281 2.921875 -0.34375 2.828125 0.25 L 2 0.25 C 2.050781 -0.507812 2.085938 -1.4375 2.109375 -2.53125 C 2.128906 -3.632812 2.140625 -5.09375 2.140625 -6.90625 L 2.96875 -6.90625 C 3.132812 -5.570312 3.375 -4.398438 3.6875 -3.390625 C 4 -2.390625 4.488281 -1.609375 5.15625 -1.046875 C 5.820312 -0.492188 6.75 -0.21875 7.9375 -0.21875 C 8.414062 -0.21875 8.898438 -0.320312 9.390625 -0.53125 C 9.878906 -0.75 10.289062 -1.109375 10.625 -1.609375 C 10.957031 -2.109375 11.125 -2.773438 11.125 -3.609375 C 11.125 -4.660156 10.742188 -5.519531 9.984375 -6.1875 C 9.222656 -6.851562 8.253906 -7.554688 7.078125 -8.296875 C 6.222656 -8.847656 5.421875 -9.394531 4.671875 -9.9375 C 3.921875 -10.488281 3.3125 -11.109375 2.84375 -11.796875 C 2.375 -12.492188 2.140625 -13.332031 2.140625 -14.3125 C 2.140625 -15.382812 2.382812 -16.257812 2.875 -16.9375 C 3.363281 -17.625 4.015625 -18.125 4.828125 -18.4375 C 5.640625 -18.757812 6.507812 -18.921875 7.4375 -18.921875 Z M 7.4375 -18.921875 "/></g></g></g><g fill="#372772" fill-opacity="1"><g transform="translate(224.386742, 80.079282)"><g><path d="M 5.125 -27.375 C 5.738281 -27.375 6.269531 -27.144531 6.71875 -26.6875 C 7.175781 -26.238281 7.40625 -25.703125 7.40625 -25.078125 C 7.40625 -24.460938 7.175781 -23.925781 6.71875 -23.46875 C 6.269531 -23.019531 5.738281 -22.796875 5.125 -22.796875 C 4.5 -22.796875 3.957031 -23.019531 3.5 -23.46875 C 3.050781 -23.925781 2.828125 -24.460938 2.828125 -25.078125 C 2.828125 -25.703125 3.050781 -26.238281 3.5 -26.6875 C 3.957031 -27.144531 4.5 -27.375 5.125 -27.375 Z M 6.984375 -18.828125 L 6.984375 -3.328125 C 6.984375 -2.328125 7.191406 -1.644531 7.609375 -1.28125 C 8.023438 -0.925781 8.722656 -0.75 9.703125 -0.75 L 9.703125 0 C 9.296875 -0.0195312 8.679688 -0.046875 7.859375 -0.078125 C 7.035156 -0.117188 6.203125 -0.140625 5.359375 -0.140625 C 4.554688 -0.140625 3.734375 -0.117188 2.890625 -0.078125 C 2.054688 -0.046875 1.4375 -0.0195312 1.03125 0 L 1.03125 -0.75 C 2.007812 -0.75 2.707031 -0.925781 3.125 -1.28125 C 3.539062 -1.644531 3.75 -2.328125 3.75 -3.328125 L 3.75 -14.53125 C 3.75 -15.601562 3.554688 -16.394531 3.171875 -16.90625 C 2.796875 -17.414062 2.082031 -17.671875 1.03125 -17.671875 L 1.03125 -18.421875 C 1.800781 -18.347656 2.539062 -18.3125 3.25 -18.3125 C 3.945312 -18.3125 4.609375 -18.351562 5.234375 -18.4375 C 5.867188 -18.53125 6.453125 -18.660156 6.984375 -18.828125 Z M 6.984375 -18.828125 "/></g></g></g><g fill="#372772" fill-opacity="1"><g transform="translate(233.867886, 80.079282)"><g><path d="M 9.796875 -18.921875 C 11.328125 -18.921875 12.703125 -18.585938 13.921875 -17.921875 C 15.140625 -17.253906 16.109375 -16.203125 16.828125 -14.765625 C 17.554688 -13.335938 17.921875 -11.484375 17.921875 -9.203125 C 17.921875 -6.910156 17.554688 -5.050781 16.828125 -3.625 C 16.109375 -2.207031 15.140625 -1.164062 13.921875 -0.5 C 12.703125 0.164062 11.328125 0.5 9.796875 0.5 C 8.296875 0.5 6.929688 0.164062 5.703125 -0.5 C 4.472656 -1.164062 3.492188 -2.207031 2.765625 -3.625 C 2.046875 -5.050781 1.6875 -6.910156 1.6875 -9.203125 C 1.6875 -11.484375 2.046875 -13.335938 2.765625 -14.765625 C 3.492188 -16.203125 4.472656 -17.253906 5.703125 -17.921875 C 6.929688 -18.585938 8.296875 -18.921875 9.796875 -18.921875 Z M 9.796875 -18.21875 C 8.441406 -18.21875 7.328125 -17.507812 6.453125 -16.09375 C 5.585938 -14.6875 5.15625 -12.390625 5.15625 -9.203125 C 5.15625 -6.003906 5.585938 -3.707031 6.453125 -2.3125 C 7.328125 -0.914062 8.441406 -0.21875 9.796875 -0.21875 C 11.160156 -0.21875 12.273438 -0.914062 13.140625 -2.3125 C 14.015625 -3.707031 14.453125 -6.003906 14.453125 -9.203125 C 14.453125 -12.390625 14.015625 -14.6875 13.140625 -16.09375 C 12.273438 -17.507812 11.160156 -18.21875 9.796875 -18.21875 Z M 9.796875 -18.21875 "/></g></g></g><g fill="#372772" fill-opacity="1"><g transform="translate(252.472681, 80.079282)"><g><path d="M 13.0625 -18.921875 C 13.96875 -18.921875 14.722656 -18.800781 15.328125 -18.5625 C 15.941406 -18.332031 16.453125 -18 16.859375 -17.5625 C 17.304688 -17.09375 17.625 -16.5 17.8125 -15.78125 C 18.007812 -15.0625 18.109375 -14.09375 18.109375 -12.875 L 18.109375 -3.328125 C 18.109375 -2.328125 18.316406 -1.644531 18.734375 -1.28125 C 19.148438 -0.925781 19.847656 -0.75 20.828125 -0.75 L 20.828125 0 C 20.421875 -0.0195312 19.800781 -0.046875 18.96875 -0.078125 C 18.132812 -0.117188 17.320312 -0.140625 16.53125 -0.140625 C 15.738281 -0.140625 14.96875 -0.117188 14.21875 -0.078125 C 13.46875 -0.046875 12.898438 -0.0195312 12.515625 0 L 12.515625 -0.75 C 13.378906 -0.75 13.988281 -0.925781 14.34375 -1.28125 C 14.707031 -1.644531 14.890625 -2.328125 14.890625 -3.328125 L 14.890625 -13.671875 C 14.890625 -14.410156 14.828125 -15.085938 14.703125 -15.703125 C 14.585938 -16.328125 14.320312 -16.828125 13.90625 -17.203125 C 13.488281 -17.585938 12.847656 -17.78125 11.984375 -17.78125 C 10.984375 -17.78125 10.109375 -17.492188 9.359375 -16.921875 C 8.609375 -16.347656 8.023438 -15.566406 7.609375 -14.578125 C 7.191406 -13.585938 6.984375 -12.484375 6.984375 -11.265625 L 6.984375 -3.328125 C 6.984375 -2.328125 7.160156 -1.644531 7.515625 -1.28125 C 7.867188 -0.925781 8.476562 -0.75 9.34375 -0.75 L 9.34375 0 C 8.957031 -0.0195312 8.390625 -0.046875 7.640625 -0.078125 C 6.890625 -0.117188 6.117188 -0.140625 5.328125 -0.140625 C 4.546875 -0.140625 3.734375 -0.117188 2.890625 -0.078125 C 2.054688 -0.046875 1.4375 -0.0195312 1.03125 0 L 1.03125 -0.75 C 2.007812 -0.75 2.707031 -0.925781 3.125 -1.28125 C 3.539062 -1.644531 3.75 -2.328125 3.75 -3.328125 L 3.75 -14.53125 C 3.75 -15.601562 3.554688 -16.394531 3.171875 -16.90625 C 2.796875 -17.414062 2.082031 -17.671875 1.03125 -17.671875 L 1.03125 -18.421875 C 1.800781 -18.347656 2.539062 -18.3125 3.25 -18.3125 C 3.945312 -18.3125 4.609375 -18.351562 5.234375 -18.4375 C 5.867188 -18.53125 6.453125 -18.660156 6.984375 -18.828125 L 6.984375 -14.59375 C 7.597656 -16.21875 8.457031 -17.34375 9.5625 -17.96875 C 10.675781 -18.601562 11.84375 -18.921875 13.0625 -18.921875 Z M 13.0625 -18.921875 "/></g></g></g></svg>