<svg xmlns="http://www.w3.org/2000/svg" xmlns:xlink="http://www.w3.org/1999/xlink" width="156" zoomAndPan="magnify" viewBox="0 0 116.88 63.749997" height="85" preserveAspectRatio="xMidYMid meet" version="1.0"><defs><clipPath id="96dbe5d35c"><path d="M 2.394531 2 L 67.441406 2 L 67.441406 61.335938 L 2.394531 61.335938 Z M 2.394531 2 " clip-rule="nonzero"/></clipPath><clipPath id="a2f0370f6e"><path d="M 38.824219 3.519531 L 65.875 28.136719 C 66.867188 29.039062 67.433594 30.316406 67.433594 31.65625 C 67.433594 32.996094 66.867188 34.273438 65.875 35.175781 L 38.824219 59.792969 C 36.632812 61.789062 33.28125 61.789062 31.089844 59.792969 L 4.035156 35.175781 C 3.046875 34.273438 2.480469 32.996094 2.480469 31.65625 C 2.480469 30.316406 3.046875 29.039062 4.035156 28.136719 L 31.089844 3.519531 C 33.28125 1.523438 36.632812 1.523438 38.824219 3.519531 Z M 38.824219 3.519531 " clip-rule="nonzero"/></clipPath><clipPath id="66d60f1342"><path d="M 0.394531 0 L 65.441406 0 L 65.441406 59.335938 L 0.394531 59.335938 Z M 0.394531 0 " clip-rule="nonzero"/></clipPath><clipPath id="a7a562a702"><path d="M 36.824219 1.519531 L 63.875 26.136719 C 64.867188 27.039062 65.433594 28.316406 65.433594 29.65625 C 65.433594 30.996094 64.867188 32.273438 63.875 33.175781 L 36.824219 57.792969 C 34.632812 59.789062 31.28125 59.789062 29.089844 57.792969 L 2.035156 33.175781 C 1.046875 32.273438 0.480469 30.996094 0.480469 29.65625 C 0.480469 28.316406 1.046875 27.039062 2.035156 26.136719 L 29.089844 1.519531 C 31.28125 -0.476562 34.632812 -0.476562 36.824219 1.519531 Z M 36.824219 1.519531 " clip-rule="nonzero"/></clipPath><clipPath id="2305f74107"><rect x="0" width="66" y="0" height="60"/></clipPath><clipPath id="c1caa2ee67"><path d="M 48.808594 2 L 113.851562 2 L 113.851562 61.332031 L 48.808594 61.332031 Z M 48.808594 2 " clip-rule="nonzero"/></clipPath><clipPath id="e60d751f55"><path d="M 85.238281 3.519531 L 112.292969 28.136719 C 113.28125 29.039062 113.847656 30.316406 113.847656 31.65625 C 113.847656 32.996094 113.28125 34.273438 112.292969 35.175781 L 85.238281 59.792969 C 83.046875 61.789062 79.695312 61.789062 77.503906 59.792969 L 50.453125 35.175781 C 49.460938 34.273438 48.894531 32.996094 48.894531 31.65625 C 48.894531 30.316406 49.460938 29.039062 50.453125 28.136719 L 77.503906 3.519531 C 79.695312 1.523438 83.046875 1.523438 85.238281 3.519531 Z M 85.238281 3.519531 " clip-rule="nonzero"/></clipPath><clipPath id="3efab9c9db"><path d="M 0.808594 0 L 65.851562 0 L 65.851562 59.332031 L 0.808594 59.332031 Z M 0.808594 0 " clip-rule="nonzero"/></clipPath><clipPath id="11680b50a1"><path d="M 37.238281 1.519531 L 64.292969 26.136719 C 65.28125 27.039062 65.847656 28.316406 65.847656 29.65625 C 65.847656 30.996094 65.28125 32.273438 64.292969 33.175781 L 37.238281 57.792969 C 35.046875 59.789062 31.695312 59.789062 29.503906 57.792969 L 2.453125 33.175781 C 1.460938 32.273438 0.894531 30.996094 0.894531 29.65625 C 0.894531 28.316406 1.460938 27.039062 2.453125 26.136719 L 29.503906 1.519531 C 31.695312 -0.476562 35.046875 -0.476562 37.238281 1.519531 Z M 37.238281 1.519531 " clip-rule="nonzero"/></clipPath><clipPath id="c38a8f1eca"><rect x="0" width="66" y="0" height="60"/></clipPath></defs><g clip-path="url(#96dbe5d35c)"><g clip-path="url(#a2f0370f6e)"><g transform="matrix(1, 0, 0, 1, 2, 2)"><g clip-path="url(#2305f74107)"><g clip-path="url(#66d60f1342)"><g clip-path="url(#a7a562a702)"><rect x="-27.7136" width="168.3072" fill="#4f70ff" height="91.799996" y="-16.024999" fill-opacity="1"/></g></g></g></g></g></g><g clip-path="url(#c1caa2ee67)"><g clip-path="url(#e60d751f55)"><g transform="matrix(1, 0, 0, 1, 48, 2)"><g clip-path="url(#c38a8f1eca)"><g clip-path="url(#3efab9c9db)"><g clip-path="url(#11680b50a1)"><rect x="-73.7136" width="168.3072" fill="#4f70ff" height="91.799996" y="-16.024999" fill-opacity="1"/></g></g></g></g></g></g></svg>